<svg xmlns="http://www.w3.org/2000/svg" viewBox="0 0 750 500"><g id="freepik--character-3--inject-20"><path d="M607.41,256.4s7.19,13.35,6.93,22.34,4.63,20.81,5.14,22.35,13.62,19.27,18.24,24.15,11.07,14.48,11.07,21.68-1.51,11.17-4.85,13.22-22.92,7-29.34,6.2-24.92-45.47-24.92-45.47-4.62-7.45-.77-22.86,14.13-34.42,14.65-36.22S607.41,256.4,607.41,256.4Z" style="fill:#92E3A9"></path><path d="M616.21,366.92a13.9,13.9,0,0,1-1.67-.09c-6.52-.78-23.41-41.16-25.32-45.77-.15-.24-4.65-7.73-.79-23.17,2.94-11.78,9.64-25.68,12.85-32.36.94-1.95,1.68-3.49,1.79-3.88.54-1.89,3.83-5.44,4-5.59a.5.5,0,0,1,.43-.16.52.52,0,0,1,.38.26c.29.55,7.25,13.58,7,22.6-.22,7.86,3.54,17.93,4.77,21.24.17.44.29.75.35.93.47,1.42,13.57,19.15,18.12,24s11.21,14.54,11.21,22c0,7.27-1.57,11.48-5.09,13.65C641.05,362.5,624,366.92,616.21,366.92ZM607.3,257.27c-1.09,1.23-2.93,3.48-3.26,4.66-.13.45-.7,1.63-1.86,4-3.2,6.65-9.86,20.49-12.78,32.17-3.75,15,.66,22.41.71,22.48,7.43,17.93,20,44.69,24.55,45.23,6.45.77,25.89-4.2,29-6.13s4.61-5.91,4.61-12.79c0-7.19-6.54-16.7-10.93-21.34S619.58,303,619,301.25c-.06-.17-.17-.48-.33-.9-1.25-3.35-5.07-13.56-4.84-21.62C614.06,271.08,608.69,260,607.3,257.27Z" style="fill:#263238"></path><circle cx="603.15" cy="342.1" r="35.24" transform="translate(167.88 881.89) rotate(-80.68)" style="fill:#fff"></circle><path d="M603.15,377.84a35.74,35.74,0,1,1,35.74-35.74A35.78,35.78,0,0,1,603.15,377.84Zm0-70.48a34.74,34.74,0,1,0,34.74,34.74A34.79,34.79,0,0,0,603.15,307.36Z" style="fill:#263238"></path><path d="M594.92,353.44a.48.48,0,0,1-.39-.19.5.5,0,0,1,.08-.7l6.27-4.95a.5.5,0,0,1,.7.09.5.5,0,0,1-.08.7l-6.27,4.95A.5.5,0,0,1,594.92,353.44Z" style="fill:#263238"></path><path d="M617.68,320.46a.5.5,0,0,1-.49-.4,28.32,28.32,0,0,0-1.57-5.43.5.5,0,0,1,.13-.7.51.51,0,0,1,.7.14c.69,1,1.62,5.3,1.72,5.78a.5.5,0,0,1-.38.6Z" style="fill:#263238"></path><path d="M621,355.75a.49.49,0,0,1-.49-.39l-.66-3a.49.49,0,0,1,.38-.59.5.5,0,0,1,.6.38l.66,3a.49.49,0,0,1-.38.59Z" style="fill:#263238"></path><path d="M636.15,338.6a.51.51,0,0,1-.17,0l-5.28-2a.5.5,0,0,1,.35-.94l5.28,2a.5.5,0,0,1,.29.65A.49.49,0,0,1,636.15,338.6Z" style="fill:#263238"></path><path d="M599.87,328.7h-.13c-.07,0-7.57-2-11.09-2a.51.51,0,0,1-.5-.5.5.5,0,0,1,.5-.5c3.65,0,11,1.91,11.34,2a.5.5,0,0,1-.12,1Z" style="fill:#263238"></path><path d="M576.32,319.27l6.12,7.2-8.82,14.28L568,339.39A35,35,0,0,1,576.32,319.27Z" style="fill:#263238"></path><path d="M573.62,341.25h-.12l-5.59-1.36a.5.5,0,0,1-.38-.53,35.51,35.51,0,0,1,8.41-20.41.52.52,0,0,1,.39-.17h0a.49.49,0,0,1,.38.18l6.11,7.2a.5.5,0,0,1,0,.58L574.05,341A.52.52,0,0,1,573.62,341.25ZM568.56,339l4.83,1.17,8.43-13.66L576.33,320A34.44,34.44,0,0,0,568.56,339Z" style="fill:#263238"></path><polygon points="617.57 322.97 628.37 335.7 619.6 349.9 603.39 345.95 602.13 329.31 617.57 322.97" style="fill:#263238"></polygon><path d="M619.6,350.4l-.12,0-16.21-3.95a.5.5,0,0,1-.38-.44l-1.26-16.64a.5.5,0,0,1,.31-.5l15.44-6.34a.51.51,0,0,1,.57.14l10.8,12.72a.5.5,0,0,1,0,.59L620,350.16A.51.51,0,0,1,619.6,350.4Zm-15.74-4.85,15.51,3.78,8.38-13.59-10.33-12.17-14.76,6.06Z" style="fill:#263238"></path><path d="M621.42,357.38l13.13.72a35.4,35.4,0,0,1-17.33,16.32l-1.81-1.48Z" style="fill:#263238"></path><path d="M617.22,374.92a.47.47,0,0,1-.32-.12l-1.81-1.47a.5.5,0,0,1-.15-.57l6-15.56a.5.5,0,0,1,.49-.32l13.13.72a.48.48,0,0,1,.4.25.51.51,0,0,1,0,.48,36,36,0,0,1-17.58,16.55A.79.79,0,0,1,617.22,374.92ZM616,372.79l1.3,1a35,35,0,0,0,16.45-15.28l-12-.66Z" style="fill:#263238"></path><path d="M572.67,359.77l4.07-7.2,16.35,3.32,1.9,16.58-5,2.3A35.3,35.3,0,0,1,572.67,359.77Z" style="fill:#263238"></path><path d="M589.94,375.27l-.18,0A36,36,0,0,1,572.24,360a.52.52,0,0,1,0-.5l4.07-7.2a.51.51,0,0,1,.54-.25l16.35,3.32a.51.51,0,0,1,.4.43l1.9,16.58a.5.5,0,0,1-.29.51l-5.05,2.31A.49.49,0,0,1,589.94,375.27Zm-16.69-15.5a34.93,34.93,0,0,0,16.68,14.46l4.52-2.07-1.81-15.85L577,353.14Z" style="fill:#263238"></path><path d="M599.88,307c1.08-.1,2.17-.16,3.27-.16a35.25,35.25,0,0,1,14,2.91l-1,1.71-16.22-4Z" style="fill:#263238"></path><path d="M616.13,312l-.12,0L599.8,308a.49.49,0,0,1-.38-.45l0-.51a.51.51,0,0,1,.45-.54c1.16-.1,2.25-.16,3.32-.16a35.63,35.63,0,0,1,14.23,2.95.57.57,0,0,1,.28.31.56.56,0,0,1,0,.42l-1.06,1.7A.49.49,0,0,1,616.13,312Zm-14.62-4.57,14.38,3.5.56-.9a34.43,34.43,0,0,0-13.3-2.65C602.61,307.36,602.07,307.38,601.51,307.41Z" style="fill:#263238"></path><path d="M589.31,435.67c4.6-1.6,6.42-3,6.57-3.81.39-1.93-.77-10.78-.77-10.78l.77-3.47s-14.63,3.47-25.41,6.16-34.26,3.85-68.13,3.85-37.75-5.28-37.75-5.28.52,8.77,3.38,13.33Z" style="fill:#d9d9d9"></path><path d="M589.31,436.17H468a.5.5,0,0,1-.42-.23c-2.9-4.62-3.44-13.21-3.46-13.57a.5.5,0,0,1,.9-.33s4.53,5.08,37.35,5.08c35.44,0,57.69-1.25,68-3.83,10.66-2.67,25.27-6.13,25.42-6.16a.49.49,0,0,1,.46.13.47.47,0,0,1,.14.46l-.75,3.38c.13,1,1.13,9,.75,10.86-.24,1.21-2.75,2.74-6.89,4.19Zm-121.06-1h121c4.83-1.69,6.09-3,6.16-3.41.3-1.51-.46-8.18-.77-10.62a.49.49,0,0,1,0-.17l.6-2.68c-3.17.75-15.38,3.66-24.62,6-10.41,2.6-32.74,3.86-68.26,3.86-26.23,0-34.64-3.18-37.16-4.7C465.42,425.85,466.19,431.69,468.25,435.17Z" style="fill:#263238"></path><path d="M574.79,232.76s29.79,18,32.62,23.64S602,279,601.5,279.77s-11,36.22-11,36.22,4.37,64.22,5.66,80.66,10.78,18.49-2.83,29.54-52.15,9-86.82,8.73-39-.77-41.87-12.58.51-16.7.51-19.27,9.25-64.22,10.28-70.13.51-16.43.51-16.43-11.82-52.15-8.73-59.86,2.82-8,17.21-15.92,36.73-16.19,38.27-16.44,40.33,1.8,40.33,1.8Z" style="fill:#fff"></path><path d="M537.62,435.74c-6.11,0-12.34-.09-18.53-.17l-12.64-.15c-34.86-.25-39.43-.76-42.35-13-2.14-8.95-.78-14,0-17a10.5,10.5,0,0,0,.47-2.34c0-2.58,9.13-63.61,10.28-70.21,1-5.79.51-16.23.51-16.33-.47-2-11.8-52.3-8.7-60.06l.28-.7c2.83-7.1,3.06-7.68,17.15-15.48,14.29-7.91,36.58-16.19,38.44-16.5,1.55-.26,36.46,1.59,40.44,1.8a.39.39,0,0,1,.21.06L575,232.33h0c1.23.73,30,18.12,32.82,23.83,3.08,6.16-5.84,23.73-5.94,23.88-.46.91-6.8,22-11,36,.19,2.75,4.4,64.59,5.64,80.56A46.41,46.41,0,0,0,599.46,409c2.23,6.43,3.46,10-5.86,17.54C583.92,434.42,561.77,435.74,537.62,435.74Zm-14.34-211a5.52,5.52,0,0,0-.56,0c-1.37.23-23.73,8.42-38.11,16.39-13.78,7.62-13.95,8-16.71,15l-.28.7c-3,7.48,8.64,59,8.76,59.55s.51,10.75-.51,16.64c-1.09,6.27-10.27,67.61-10.27,70a10.9,10.9,0,0,1-.5,2.6c-.79,2.94-2.11,7.85,0,16.55,2.75,11.48,7.22,11.95,41.39,12.2l12.64.15c30.49.41,62,.83,73.86-8.77,8.79-7.12,7.71-10.23,5.55-16.43a46.94,46.94,0,0,1-2.9-12.68c-1.27-16.26-5.61-80-5.65-80.66a.55.55,0,0,1,0-.18c1.77-5.93,10.59-35.56,11.11-36.35S609.64,262,607,256.62s-31.86-23.08-32.43-23.42l-11.7-6.62C548.38,225.81,527.11,224.76,523.28,224.76Z" style="fill:#263238"></path><path d="M554.69,287.23h-.07a.49.49,0,0,1-.42-.57c1.13-7.53-1.14-23.18-1.16-23.33a.5.5,0,0,1,.42-.57.51.51,0,0,1,.57.42c.1.65,2.31,15.95,1.16,23.63A.51.51,0,0,1,554.69,287.23Z" style="fill:#263238"></path><path d="M551.23,417.73h-.11a.51.51,0,0,1-.38-.6c.27-1.18.51-2.51.71-3.95a.51.51,0,0,1,.57-.43.5.5,0,0,1,.42.57c-.21,1.47-.45,2.83-.73,4A.49.49,0,0,1,551.23,417.73Z" style="fill:#263238"></path><path d="M552.37,410.13h0a.49.49,0,0,1-.45-.54c2-20.8-1.87-56.23-1.91-56.58a.5.5,0,1,1,1-.11c0,.35,3.87,35.88,1.91,56.78A.5.5,0,0,1,552.37,410.13Z" style="fill:#263238"></path><path d="M559.32,405.06h-1.21a.5.5,0,0,1-.49-.52.51.51,0,0,1,.51-.48c1.44,0,3.09,0,4.92-.1a.48.48,0,0,1,.53.47.51.51,0,0,1-.47.53C561.75,405,560.47,405.06,559.32,405.06Z" style="fill:#263238"></path><path d="M566.94,404.66a.52.52,0,0,1-.5-.46.5.5,0,0,1,.46-.54c10.64-1,22.86-3.45,23-3.47a.48.48,0,0,1,.59.39.5.5,0,0,1-.39.59c-.12,0-12.4,2.5-23.09,3.48Z" style="fill:#263238"></path><path d="M561.19,378.39a21.75,21.75,0,0,1-5-.45.51.51,0,0,1,.25-1c8.13,2,34.93-3.81,35.2-3.87a.5.5,0,1,1,.22,1C590.94,374.27,572,378.39,561.19,378.39Z" style="fill:#263238"></path><path d="M559,353.24a.5.5,0,0,1,0-1c1.27,0,2.81-.14,4.57-.33a.5.5,0,0,1,.11,1c-1.79.18-3.36.29-4.65.33Z" style="fill:#263238"></path><path d="M567.23,352.47a.51.51,0,0,1-.5-.43.5.5,0,0,1,.43-.56c8.24-1.12,17.56-3.08,17.66-3.1a.51.51,0,0,1,.59.38.49.49,0,0,1-.39.59c-.09,0-9.45,2-17.72,3.12Z" style="fill:#263238"></path><path d="M504.07,351.5H504a81.86,81.86,0,0,1-10.63-2.14.5.5,0,0,1,.27-1,78.2,78.2,0,0,0,10.5,2.12.5.5,0,0,1,.43.57A.51.51,0,0,1,504.07,351.5Z" style="fill:#263238"></path><path d="M528.06,352.94c-5.44,0-12.13-.18-18.76-.82a.5.5,0,0,1,.09-1,221.73,221.73,0,0,0,30.54.52.48.48,0,0,1,.53.47.52.52,0,0,1-.47.53C539.9,352.65,535,352.94,528.06,352.94Z" style="fill:#263238"></path><path d="M498.73,380.75h-.09a44.38,44.38,0,0,1-4.38-1,.5.5,0,0,1,.28-1,42.43,42.43,0,0,0,4.28,1,.52.52,0,0,1,.41.59A.51.51,0,0,1,498.73,380.75Z" style="fill:#263238"></path><path d="M514,381.91a99.48,99.48,0,0,1-11.2-.57.49.49,0,0,1-.44-.55.5.5,0,0,1,.55-.44c17.32,2,40.62-1.86,40.86-1.9a.5.5,0,0,1,.16,1A210.05,210.05,0,0,1,514,381.91Z" style="fill:#263238"></path><path d="M517.7,410.26a107.17,107.17,0,0,1-24.31-2.55.5.5,0,0,1,.23-1c10,2.33,21.67,3.05,34.71,2.14a.51.51,0,0,1,.53.46.5.5,0,0,1-.46.54Q522.88,410.26,517.7,410.26Z" style="fill:#263238"></path><path d="M533.17,409.47a.5.5,0,0,1,0-1,138.61,138.61,0,0,0,13.88-2,.49.49,0,0,1,.59.38.5.5,0,0,1-.38.6c-.06,0-5.69,1.21-14,2Z" style="fill:#263238"></path><path d="M513.3,322.11a71.48,71.48,0,0,1-18.74-2.24.5.5,0,0,1-.34-.62.49.49,0,0,1,.61-.34c19,5.26,43.57-.55,43.82-.61a.5.5,0,0,1,.23,1A123.71,123.71,0,0,1,513.3,322.11Z" style="fill:#263238"></path><path d="M568.11,318.2a25.64,25.64,0,0,1-7.46-1,.5.5,0,0,1,.3-1c10.42,3.19,24.53-2.61,24.67-2.67a.5.5,0,0,1,.39.93A52.71,52.71,0,0,1,568.11,318.2Z" style="fill:#263238"></path><polyline points="481.24 379.46 485.87 422.56 489.15 423.1 484.24 378.64" style="fill:#d9d9d9"></polyline><path d="M489.15,423.6h-.09l-3.27-.55a.5.5,0,0,1-.41-.44l-4.64-43.1a.5.5,0,0,1,1-.11l4.6,42.73,2.25.37-4.84-43.81a.5.5,0,0,1,1-.11l4.91,44.47a.51.51,0,0,1-.15.42A.53.53,0,0,1,489.15,423.6Z" style="fill:#263238"></path><path d="M479.6,384.64l2.45,2.23,3.24,31.95s-5.63-2.11-8.16-5.07A45.49,45.49,0,0,1,472.2,406l-1.83-2.25-2-2.39Z" style="fill:#a8a8a8"></path><path d="M485.29,419.32a.47.47,0,0,1-.17,0c-.24-.09-5.79-2.19-8.37-5.21a44.69,44.69,0,0,1-5-7.8l-3.77-4.6a.5.5,0,0,1,0-.59l11.2-16.73a.5.5,0,0,1,.76-.09l2.45,2.23a.47.47,0,0,1,.16.32l3.24,31.95a.52.52,0,0,1-.19.45A.5.5,0,0,1,485.29,419.32Zm-16.27-18,3.57,4.37a.35.35,0,0,1,.06.09,45.71,45.71,0,0,0,4.86,7.64c1.88,2.19,5.6,3.93,7.2,4.61l-3.13-30.93-1.89-1.71Z" style="fill:#263238"></path><path d="M484.37,240.73c14.38-8,36.73-16.19,38.27-16.44s40.33,1.8,40.33,1.8l11.82,6.67s29.79,18,32.62,23.64c1.81,3.62-.91,11.86-3.24,17.53a51.08,51.08,0,0,0-27.59-14.19c-21.32-3.86-26.2-1.55-26.2-1.55s-28.25-7.19-51.63,3.09a266.82,266.82,0,0,0-30.48,15.82c-1.44-9.51-2.2-17.73-1.11-20.45C470.24,249,470,248.69,484.37,240.73Z" style="fill:#92E3A9"></path><path d="M468.27,277.6a.41.41,0,0,1-.21-.05.48.48,0,0,1-.28-.37c-1.73-11.44-2.09-18.21-1.09-20.71l.28-.7c2.83-7.1,3.06-7.68,17.15-15.48h0c14.29-7.91,36.58-16.19,38.44-16.5,1.55-.26,36.46,1.59,40.44,1.8a.39.39,0,0,1,.21.06L575,232.33c1.24.74,30,18.13,32.83,23.84,1.88,3.77-.72,11.84-3.22,17.95a.51.51,0,0,1-.37.3.47.47,0,0,1-.45-.13,50.92,50.92,0,0,0-27.33-14.06c-20.74-3.75-25.85-1.6-25.9-1.58a.47.47,0,0,1-.33,0c-.28-.07-28.37-7-51.31,3.06a267.4,267.4,0,0,0-30.42,15.79A.48.48,0,0,1,468.27,277.6Zm16.1-36.87.24.44c-13.78,7.63-13.95,8-16.71,15l-.28.7c-.62,1.55-.94,6.19,1,19.45a266.76,266.76,0,0,1,29.89-15.47c22.36-9.83,49.47-3.7,51.8-3.15,1.06-.37,7-1.92,26.32,1.57A52.08,52.08,0,0,1,604,273.05c2-4.95,4.69-13,3-16.43-2.73-5.46-32.14-23.25-32.43-23.43l-11.7-6.61c-15.54-.82-39-2-40.11-1.8-1.37.23-23.73,8.42-38.11,16.39Z" style="fill:#263238"></path><path d="M569.9,207.08l-2,19.26s-10.28,7.71-21.83,6.42-20.55-11.55-20.55-11.55l2.82-15.93Z" style="fill:#c2c2c2"></path><path d="M548.62,233.41a24,24,0,0,1-2.66-.15c-11.62-1.29-20.5-11.3-20.87-11.73a.5.5,0,0,1-.12-.41l2.83-15.93a.48.48,0,0,1,.51-.41l41.62,1.8a.5.5,0,0,1,.47.55l-2,19.27a.52.52,0,0,1-.2.34C568.05,226.81,559.13,233.41,548.62,233.41ZM526,221.05c1.25,1.35,9.67,10.06,20.07,11.22s19.92-5.22,21.31-6.2l2-18.52-40.64-1.75Z" style="fill:#263238"></path><path d="M553.46,308.53h-.09a.51.51,0,0,1-.34-.25c-.19-.33-18.33-33.12-24.44-50.68a151.31,151.31,0,0,1-7.48-30.94.5.5,0,0,1,1-.1,148.9,148.9,0,0,0,7.42,30.71c5.64,16.21,21.62,45.52,24.06,50,1.73-1.76,8.19-9.25,14-28.11,6.83-22,5.13-47.6,5.12-47.85a.5.5,0,0,1,.46-.54.51.51,0,0,1,.53.47c0,.26,1.73,26-5.16,48.22s-14.48,28.74-14.79,29A.52.52,0,0,1,553.46,308.53Z" style="fill:#263238"></path><rect x="551.41" y="320.87" width="3.08" height="11.05" transform="translate(1105.9 652.79) rotate(180)" style="fill:#a8a8a8"></rect><path d="M554.49,332.42h-3.08a.5.5,0,0,1-.5-.5V320.87a.5.5,0,0,1,.5-.5h3.08a.5.5,0,0,1,.5.5v11.05A.5.5,0,0,1,554.49,332.42Zm-2.58-1H554V321.37h-2.08Z" style="fill:#263238"></path><rect x="550.38" y="311.11" width="5.14" height="12.33" transform="translate(1105.9 634.55) rotate(180)" style="fill:#a8a8a8"></rect><path d="M555.52,323.94h-5.14a.5.5,0,0,1-.5-.5V311.11a.5.5,0,0,1,.5-.5h5.14a.5.5,0,0,1,.5.5v12.33A.5.5,0,0,1,555.52,323.94Zm-4.64-1H555V311.61h-4.14Z" style="fill:#263238"></path><path d="M549.35,309.83a3.89,3.89,0,1,0,3.86-3.34A3.63,3.63,0,0,0,549.35,309.83Z" style="fill:#a8a8a8"></path><path d="M553.21,313.67a3.87,3.87,0,1,1,4.35-3.84A4.14,4.14,0,0,1,553.21,313.67Zm0-6.68a2.88,2.88,0,1,0,3.35,2.84A3.14,3.14,0,0,0,553.21,307Z" style="fill:#263238"></path><path d="M568.74,220.48s.39,9.2-17.59,8.17S526,214.78,526,214.78l-7.2,9.76s4.11,9.77,20,14.39,25.43.26,29.29-2.06,6.68-4.11,6.68-4.11Z" style="fill:#fff"></path><path d="M552.2,241.48a48.57,48.57,0,0,1-13.52-2.07c-16-4.64-20.18-14.26-20.35-14.67a.5.5,0,0,1,0-.49l7.21-9.77a.51.51,0,0,1,.43-.2.49.49,0,0,1,.4.26c.08.12,7.28,12.62,24.76,13.62,9,.51,13.16-1.6,15.06-3.47a6,6,0,0,0,2-4.19.49.49,0,0,1,.38-.5.5.5,0,0,1,.57.26l6,12.28a.5.5,0,0,1-.18.65s-2.87,1.82-6.69,4.11A30.85,30.85,0,0,1,552.2,241.48ZM519.37,224.6c.78,1.54,5.52,9.76,19.59,13.85,14.23,4.13,23.57,1.19,28.89-2,3-1.8,5.39-3.3,6.29-3.87L569,222.11a7.73,7.73,0,0,1-2,3.27c-3,2.94-8.31,4.21-15.84,3.77-15.72-.89-23.4-10.84-25.17-13.49Z" style="fill:#263238"></path><path d="M573.5,146.2s6.94,8,7.71,12.33-4.11,39.3-7.45,46.49-11.82,19.52-20.3,23.12-18-1-22.6-9-6.68-19.78-7.19-23.89,1.54-40.33,3.85-46,17-12.59,25.94-12.33S569.9,142.35,573.5,146.2Z" style="fill:#a8a8a8"></path><path d="M547.43,229.85c-6.54,0-13.18-3.86-17-10.45-5.26-9.05-7.07-22.57-7.26-24.08-.56-4.51,1.57-40.55,3.89-46.23s17.18-12.88,26.42-12.64c8.8.25,16.48,5.23,20.39,9.41h0c.29.33,7,8.12,7.82,12.57s-4,39.34-7.49,46.79c-3.27,7.06-11.75,19.64-20.55,23.37A15.86,15.86,0,0,1,547.43,229.85ZM553,137.44c-8.77,0-22.82,6.71-25,12s-4.36,41.4-3.82,45.73c.19,1.49,2,14.82,7.13,23.7,4.81,8.28,14.26,12,22,8.78,8.09-3.43,16.58-15.44,20-22.87,3.29-7.07,8.15-42,7.41-46.19s-7.35-11.82-7.58-12.09c-3.77-4-11.19-8.84-19.68-9.08Z" style="fill:#263238"></path><path d="M549.86,198.34c-4.78,0-7.65-3.34-7.94-5.32a.5.5,0,1,1,1-.14c.24,1.68,3,4.68,7.45,4.45a8.32,8.32,0,0,0,6.53-3.36.5.5,0,0,1,.85.53,9.23,9.23,0,0,1-7.33,3.83Z" style="fill:#263238"></path><path d="M559.88,175.11s8.69,2.62,10.64,3.44,3.26-2.62-2.17-4.49S557.3,171.59,559.88,175.11Z" style="fill:#263238"></path><path d="M571.1,179.17a2,2,0,0,1-.77-.16c-1.91-.8-10.51-3.4-10.6-3.43a.51.51,0,0,1-.26-.18c-.78-1.07-1-1.93-.48-2.56,1.41-1.92,8.18.29,9.53.75,3.41,1.18,4.05,2.86,4.17,3.53a1.78,1.78,0,0,1-.59,1.72A1.6,1.6,0,0,1,571.1,179.17Zm-10.91-4.49c1.24.37,8.7,2.64,10.53,3.41a.72.72,0,0,0,.76,0,.75.75,0,0,0,.22-.76c-.07-.38-.52-1.72-3.51-2.75-4.6-1.59-7.88-1.81-8.4-1.1C559.64,173.64,559.79,174.1,560.19,174.68Z" style="fill:#263238"></path><path d="M545.65,173.17s-9,1.28-11,1.8-2.82-3.08,2.83-4.11S548.73,170.09,545.65,173.17Z" style="fill:#263238"></path><path d="M534.22,175.52A1.63,1.63,0,0,1,533,175a1.76,1.76,0,0,1-.32-1.78c.22-.65,1.1-2.22,4.66-2.86,1.4-.26,8.42-1.42,9.53.7.36.69.07,1.51-.87,2.45a.55.55,0,0,1-.28.15c-.09,0-9,1.28-11,1.78A1.77,1.77,0,0,1,534.22,175.52Zm8.54-4.71a29.57,29.57,0,0,0-5.24.54c-3.12.57-3.77,1.82-3.89,2.2a.75.75,0,0,0,.1.78.73.73,0,0,0,.75.15c1.92-.48,9.64-1.6,10.93-1.78.48-.51.69-.94.57-1.17C545.75,171.09,544.59,170.81,542.76,170.81Zm2.89,2.36h0Z" style="fill:#263238"></path><path d="M559.37,182.42c0,1.56.92,2.82,2.06,2.82s2.05-1.26,2.05-2.82-.92-2.83-2.05-2.83S559.37,180.86,559.37,182.42Z" style="fill:#263238"></path><path d="M537.8,180.88c0,1.56.92,2.82,2.05,2.82s2.06-1.26,2.06-2.82-.92-2.83-2.06-2.83S537.8,179.32,537.8,180.88Z" style="fill:#263238"></path><path d="M552.44,198.09s10,1.54,11,5.39-.51,15.93-3.59,20-10.79,6.16-14.9,5.91-9.25-3.86-10.79-6.17a19.68,19.68,0,0,1-2.57-9.76c0-3.34-.77-11.05,3.08-13.87S552.44,198.09,552.44,198.09Z" style="fill:#263238"></path><path d="M545.71,230q-.39,0-.75,0c-4.34-.27-9.6-4-11.18-6.38a20,20,0,0,1-2.65-10c0-.42,0-.92,0-1.47-.09-3.81-.25-10.19,3.32-12.81,4-2.9,17.49-1.68,18.06-1.63h0c.43.07,10.36,1.64,11.46,5.76s-.51,16.24-3.68,20.47S550,230,545.71,230Zm-.19-31.65c-4,0-8.6.33-10.51,1.73-3.15,2.31-3,8.36-2.91,12,0,.55,0,1.06,0,1.49a19.2,19.2,0,0,0,2.49,9.48c1.48,2.23,6.5,5.7,10.4,6,4.06.25,11.53-1.8,14.47-5.71S564,207.34,563,203.61c-.77-2.89-7.91-4.61-10.62-5C552.13,198.56,549.07,198.3,545.52,198.3Z" style="fill:#263238"></path><path d="M536,204.25s6.93-1.8,11.81-1.28,11.56,3.59,11.56,3.59a12.44,12.44,0,0,1-11.56,7.71C539.08,214.27,536,204.25,536,204.25Z" style="fill:#c2c2c2"></path><path d="M547.81,214.77c-9,0-12.26-10.27-12.29-10.37a.48.48,0,0,1,0-.39.49.49,0,0,1,.31-.24c.29-.08,7.08-1.82,12-1.3s11.44,3.51,11.71,3.64a.5.5,0,0,1,.26.63A13.05,13.05,0,0,1,547.81,214.77Zm-11.16-10.16c.77,2,4,9.16,11.16,9.16a11.78,11.78,0,0,0,10.91-7c-1.56-.68-6.93-2.93-11-3.36S538.36,204.21,536.65,204.61Z" style="fill:#263238"></path><path d="M549.55,208.27c-4.43,0-9.6-.78-13.83-3.6a.51.51,0,0,1-.14-.7.49.49,0,0,1,.69-.13c9,6,22.83,2.28,23,2.24a.5.5,0,0,1,.27,1A42.11,42.11,0,0,1,549.55,208.27Z" style="fill:#263238"></path><path d="M563.48,192.42l-.16,0c-1.61-.54-5-4.1-5.34-4.5a.5.5,0,0,1,.73-.69c1,1,3.77,3.85,4.93,4.24a.5.5,0,0,1-.16,1Z" style="fill:#263238"></path><path d="M535.74,189.85a.5.5,0,0,1-.5-.5.5.5,0,0,1,.5-.5c1.34,0,3.58-1.41,4.33-2a.5.5,0,0,1,.59.81C540.54,187.79,537.68,189.85,535.74,189.85Z" style="fill:#263238"></path><path d="M579.15,181.65s4.37-4.37,6.17-.77-1.29,13.87-3.86,16.18a12.7,12.7,0,0,1-5.9,2.82Z" style="fill:#a8a8a8"></path><path d="M575.56,200.38a.51.51,0,0,1-.37-.15.48.48,0,0,1-.12-.44l3.59-18.24a.51.51,0,0,1,.14-.26c.11-.1,2.7-2.66,4.91-2.3a2.75,2.75,0,0,1,2,1.66c2,3.91-1.29,14.37-4,16.78a13.22,13.22,0,0,1-6.17,2.95Zm4.05-18.48-3.42,17.33a12.16,12.16,0,0,0,4.94-2.54c2.37-2.13,5.46-12.15,3.74-15.59a1.81,1.81,0,0,0-1.32-1.12C582.21,179.76,580.35,181.2,579.61,181.9Z" style="fill:#263238"></path><path d="M524.18,175.48s-4.62-4.37-5.91-2-1.79,8.47-.25,12.84a16.65,16.65,0,0,0,5.65,7.19Z" style="fill:#a8a8a8"></path><path d="M523.67,194a.6.6,0,0,1-.29-.08,17,17,0,0,1-5.83-7.44c-1.55-4.39-1.12-10.73.29-13.26a1.71,1.71,0,0,1,1.28-.9c2-.31,5.06,2.51,5.41,2.84a.48.48,0,0,1,.15.38l-.51,18a.5.5,0,0,1-.28.43A.59.59,0,0,1,523.67,194Zm-4.22-20.71h-.18a.73.73,0,0,0-.56.41c-1.28,2.3-1.66,8.36-.22,12.43a15.55,15.55,0,0,0,4.71,6.36l.48-16.77C522.54,174.66,520.58,173.25,519.45,173.25Z" style="fill:#263238"></path><path d="M645.43,350.93s-4.89-8.48-6.43-9-6.16,0-8.22-1.29-2.82-5.14-4.36-3.34-3.09,6.17-1.54,9,7.44,3.86,8.22,4.63,1.79,5.13,1.54,6.67-5.4,4.89-5.4,4.89-7.19-1-9.5-2.32-9.76-5.65-10.28-3.34,1.54,5.4,1.54,5.4-4.36-2.57-5.65-1.29,1.8,5.91,2.06,6.94-3.6-1.54-4.37-.51a3.45,3.45,0,0,0-.39,3.5c.73,2.2,4.85,5.43,4.85,5.43s-3.94.57-5.23-.2-3.08-1-2,1.28,5.9,3.34,10.27,3.34,11.56-2.05,14.64-2.82,12.59-6.17,15.16-9,6.68-10,7.19-12.33S645.43,350.93,645.43,350.93Z" style="fill:#a8a8a8"></path><path d="M610.49,381.22c-4.2,0-9.54-1-10.73-3.63-.47-1.06-.46-1.81,0-2.24.66-.58,1.85-.22,2.75.32a8.52,8.52,0,0,0,3.74.27c-1.29-1.12-3.54-3.25-4.1-4.92a4,4,0,0,1,.47-3.95c.65-.86,2.12-.31,3.41.19l.67.24c-.12-.25-.28-.56-.44-.88-1-2-2.47-4.84-1.28-6,1-1,3.24-.28,4.77.43a7.18,7.18,0,0,1-.8-4.29,1.29,1.29,0,0,1,.74-.91c1.61-.71,5.63,1.32,9.74,3.62l.53.3c2,1.11,8,2.05,9.15,2.22,2-1.35,4.87-3.55,5-4.44.24-1.42-.79-5.63-1.4-6.24a8.9,8.9,0,0,0-1.8-.75c-2.14-.75-5.36-1.89-6.5-4-1.65-3-.1-7.57,1.6-9.55a1.54,1.54,0,0,1,1.23-.65c.79.05,1.33.86,2,1.8a7,7,0,0,0,1.82,2.09c1.16.73,3.4.83,5.2.91a12.77,12.77,0,0,1,2.91.32c1.63.54,5.81,7.68,6.68,9.19.27.36,2.67,3.61,2.13,6s-4.8,9.79-7.31,12.55-12.16,8.33-15.41,9.14l-1.52.39C620.2,379.69,614.31,381.22,610.49,381.22Zm-9.84-5.17a.4.4,0,0,0-.2,0s-.12.32.22,1.09c.93,2.09,5.74,3,9.82,3,3.69,0,9.51-1.51,13-2.41l1.53-.4c3.06-.76,12.49-6.18,14.91-8.84,2.56-2.82,6.59-9.93,7.07-12.1.38-1.71-1.29-4.36-2-5.24l0-.06c-2.35-4.08-5.29-8.48-6.15-8.76a12.75,12.75,0,0,0-2.63-.27c-2-.09-4.3-.2-5.69-1.06a7.78,7.78,0,0,1-2.12-2.38c-.4-.6-.9-1.34-1.19-1.36a.74.74,0,0,0-.41.3c-1.52,1.76-2.85,5.92-1.49,8.42,1,1.76,4,2.83,6,3.53a6.73,6.73,0,0,1,2.18,1c1,1,1.94,5.55,1.68,7.12s-4.73,4.64-5.62,5.21a.46.46,0,0,1-.34.08c-.3,0-7.31-1.06-9.67-2.37l-.54-.3c-1.85-1-7.48-4.18-8.85-3.57a.24.24,0,0,0-.16.2c-.46,2.08,1.45,5,1.47,5a.5.5,0,0,1-.67.71c-1.63-1-4.35-2.05-5-1.36s.76,3.5,1.46,4.86a9.81,9.81,0,0,1,.72,1.6.68.68,0,0,1-.18.7c-.39.34-1,.11-2-.27-1.37-.52-2.13-.69-2.26-.52a3,3,0,0,0-.32,3c.57,1.69,3.57,4.33,4.69,5.2a.51.51,0,0,1,.17.52.49.49,0,0,1-.41.37c-.42.06-4.16.57-5.56-.27A2.88,2.88,0,0,0,600.65,376.05Z" style="fill:#263238"></path><path d="M630.26,370.54a8.1,8.1,0,0,1-2-.22c-2.14-.57-8.83-1.45-8.89-1.45a.64.64,0,0,1-.24-.1l-8.39-6.14a.51.51,0,0,1-.11-.7.5.5,0,0,1,.7-.1l8.29,6.06c1,.13,6.83.91,8.9,1.46s5.9-.29,5.93-.29a.5.5,0,0,1,.6.38.49.49,0,0,1-.38.59A22.7,22.7,0,0,1,630.26,370.54Z" style="fill:#263238"></path><path d="M624.21,376.05a11,11,0,0,1-2-.14,78.52,78.52,0,0,1-8.62-2.38c-1.51-.6-6-4.81-6.56-5.28a.5.5,0,0,1,0-.71.51.51,0,0,1,.71,0c1.35,1.27,5.12,4.64,6.25,5.1a82.06,82.06,0,0,0,8.43,2.32,19.24,19.24,0,0,0,4.26,0,.49.49,0,0,1,.55.45.5.5,0,0,1-.44.55C626.72,375.93,625.51,376.05,624.21,376.05Z" style="fill:#263238"></path><path d="M618.37,378.42h-5.44l-.14,0-5.44-1.62a.5.5,0,0,1-.33-.62.51.51,0,0,1,.62-.34l5.37,1.6h5.36a.5.5,0,0,1,0,1Z" style="fill:#263238"></path><path d="M472.07,249.11s-5,.51-12.93,13.87S428.59,330.9,425,342.63s18,43.65,25.37,51.83a76.14,76.14,0,0,0,16.37,13.37s4.91-4.64,6.27-9,6.55-14.19,6.55-14.19-12.28-24.55-12.82-26.46,10.09-22.37,16.91-31.37,16.64-39.28,6.28-57S472.07,249.11,472.07,249.11Z" style="fill:#92E3A9"></path><path d="M466.78,408.33a.45.45,0,0,1-.25-.07A77.07,77.07,0,0,1,450,394.8c-7.94-8.83-29-40.52-25.47-52.31,3.67-12.16,26.35-66.59,34.14-79.76,8-13.43,13.09-14.09,13.31-14.11a.45.45,0,0,1,.23,0c.32.12,7.81,3.22,18.15,20.9,10.55,18.05.24,48.92-6.31,57.56-6.9,9.11-17.18,29.06-16.83,30.94.42,1.47,8.55,17.89,12.79,26.37a.48.48,0,0,1,0,.45c-.05.1-5.17,9.83-6.51,14.1-1.39,4.44-6.2,9-6.41,9.22A.49.49,0,0,1,466.78,408.33ZM472,249.64c-.78.19-5.47,1.82-12.44,13.6-7.77,13.13-30.38,67.41-34.05,79.54-3.4,11.24,17.66,42.9,25.27,51.35A76.07,76.07,0,0,0,466.7,407.2c1-1,4.75-4.91,5.88-8.52,1.26-4,5.65-12.51,6.46-14.05-1.33-2.64-12.21-24.46-12.74-26.31-.66-2.29,10.62-23.4,17-31.81s16.58-38.78,6.24-56.46C480.13,254,473,250.12,472,249.64Z" style="fill:#263238"></path><path d="M447.68,363.44h-.06a21.06,21.06,0,0,1-11.18-4.34.5.5,0,0,1,.67-.75,20.31,20.31,0,0,0,10.62,4.1.5.5,0,0,1-.05,1Z" style="fill:#263238"></path><path d="M450.41,363.59a.5.5,0,0,1-.5-.5.51.51,0,0,1,.5-.5,22.78,22.78,0,0,0,11.65-3.31c-5.87,1-13.4-1.66-19.08-4.31a.5.5,0,0,1-.24-.67.49.49,0,0,1,.66-.24c6.53,3,15.52,6.1,21.26,3.4a.49.49,0,0,1,.63.17.52.52,0,0,1-.08.65A23.45,23.45,0,0,1,450.41,363.59Z" style="fill:#263238"></path><path d="M439,352.92a.53.53,0,0,1-.24-.06c-1.74-.94-2.78-1.59-2.83-1.62a.5.5,0,0,1,.53-.85s1.07.66,2.78,1.59a.5.5,0,0,1,.2.68A.52.52,0,0,1,439,352.92Z" style="fill:#263238"></path></g><g id="freepik--character-1--inject-20"><polygon points="266.59 435.67 259.02 387.4 149.65 388.3 142.76 435.67 266.59 435.67" style="fill:#fff"></polygon><path d="M266.59,436.17H142.76a.5.5,0,0,1-.5-.57l6.89-47.38a.5.5,0,0,1,.49-.42L259,386.9h0a.51.51,0,0,1,.5.43l7.57,48.27a.49.49,0,0,1-.12.4A.49.49,0,0,1,266.59,436.17Zm-123.25-1H266l-7.42-47.26-108.51.88Z" style="fill:#263238"></path><path d="M178,408.89c-15.68-2.07-23.85-4.95-30-9.29l1.65-11.3,30.36-.25Z" style="fill:#263238"></path><path d="M178,409.39h-.06c-14.82-2-23.57-4.68-30.21-9.39a.49.49,0,0,1-.2-.48l1.64-11.3a.5.5,0,0,1,.49-.42l30.36-.25a.49.49,0,0,1,.37.16.48.48,0,0,1,.13.39l-2,20.84a.53.53,0,0,1-.19.35A.5.5,0,0,1,178,409.39Zm-29.44-10c6.39,4.45,14.85,7.07,29,9l1.92-19.78-29.37.24Z" style="fill:#263238"></path><path d="M242.43,387.54,259,387.4l1.68,10.68A100.1,100.1,0,0,1,245.78,405Z" style="fill:#263238"></path><path d="M245.78,405.52a.42.42,0,0,1-.24-.07.49.49,0,0,1-.25-.34l-3.35-17.48a.52.52,0,0,1,.11-.41.49.49,0,0,1,.38-.18L259,386.9h0a.51.51,0,0,1,.5.43L261.19,398a.51.51,0,0,1-.24.51,100.52,100.52,0,0,1-15,7ZM243,388l3.12,16.31a98.15,98.15,0,0,0,14-6.52l-1.56-9.91Z" style="fill:#263238"></path><path d="M189.63,388l47.91-.39,3.35,19.12a100.49,100.49,0,0,1-36.48,4.57c-6.24-.39-11.78-.81-16.73-1.29Z" style="fill:#263238"></path><path d="M210.46,412c-2,0-4.05-.07-6.08-.19-6.29-.39-11.77-.81-16.75-1.29a.51.51,0,0,1-.45-.54l1.95-22a.49.49,0,0,1,.49-.46l47.91-.39h0a.49.49,0,0,1,.49.41l3.35,19.12a.49.49,0,0,1-.34.56A101.44,101.44,0,0,1,210.46,412Zm-22.24-2.43c4.84.46,10.15.86,16.22,1.24a99.49,99.49,0,0,0,35.88-4.42l-3.2-18.27-47,.39Z" style="fill:#263238"></path><path d="M221.74,220l21.31,13s32.54,9.6,33.73,12.53S333.63,322,333.63,322s-5.95,12.05-26.89,14.43c-14.07,1.59-21.37.93-22.46.71s-16.83-16.08-16.83-16.08-4.37,46.51-4.73,51.4.83,14.84-1.23,17.62-17.69,11.48-51.17,12.73S153.87,397.38,151,394a22.06,22.06,0,0,1-3.84-8.51s0-46.62-.08-49.86-4.57-20.92-4.57-20.92-17,30.15-17.82,30.18-29.44.84-36-7.84-7.79-13-7.79-13,25-40.73,28-46.79,14.28-23.25,15.53-25.73,2.91-9,5.28-10.75,33.93-11,33.93-11,17.72-10.67,21.73-11.9S221.74,220,221.74,220Z" style="fill:#92E3A9"></path><path d="M202.32,403.48c-28.56,0-48.84-5.79-51.67-9.19a22.39,22.39,0,0,1-3.94-8.73c0-.57,0-46.75-.09-49.94-.1-2.66-3.25-15.55-4.26-19.6-16.54,29.3-17.26,29.33-17.61,29.34s-29.58,1-36.4-8c-6.53-8.65-7.82-12.94-7.87-13.12a.51.51,0,0,1,0-.4c.25-.41,25-40.78,28-46.75,1.88-3.78,6.81-11.65,10.77-18,2.3-3.66,4.29-6.83,4.76-7.76.37-.73.8-1.9,1.26-3.13,1.12-3.05,2.4-6.52,4.17-7.79,2.38-1.72,32-10.48,34-11.06,1.28-.78,17.83-10.71,21.78-11.92s35.19,2,36.52,2.13a.48.48,0,0,1,.2.07l21.26,13c5.61,1.66,32.77,9.81,34,12.8.92,2.27,37.54,50.93,56.78,76.35a.51.51,0,0,1,.05.52c-.25.5-6.31,12.32-27.29,14.7-14,1.59-21.39,1-22.61.7-1.06-.22-11.24-10.33-16.34-15.45-.65,7-4.29,45.91-4.62,50.32-.11,1.53-.07,3.58,0,5.74.1,5,.2,10.11-1.31,12.15-1.66,2.24-16.06,11.6-51.55,12.93C207.6,403.44,204.93,403.48,202.32,403.48Zm-54.62-18s1,4.94,3.72,8.19c2.42,2.91,24.18,10,58.88,8.68,32.58-1.22,48.63-9.61,50.79-12.53,1.3-1.76,1.19-7.18,1.11-11.53-.05-2.19-.09-4.26,0-5.83.35-4.83,4.67-50.94,4.72-51.4a.5.5,0,0,1,.33-.43.5.5,0,0,1,.52.12c5.89,5.93,15.62,15.5,16.63,15.95,1.14.23,8.38.84,22.25-.73,18.68-2.12,25.32-12.13,26.35-13.89-4.19-5.53-55.53-73.42-56.71-76.31-.72-1.76-17.75-7.62-33.41-12.24l-.12,0-21.21-12.94c-11.17-1.16-32.92-3.1-36-2.16-3.9,1.2-21.44,11.75-21.61,11.86l-.12.05c-8.75,2.58-31.89,9.57-33.78,10.93-1.51,1.1-2.79,4.55-3.82,7.33a33.64,33.64,0,0,1-1.3,3.24c-.49,1-2.39,4-4.8,7.83-3.74,6-8.87,14.16-10.73,17.89-2.92,5.86-25.79,43.19-27.9,46.63.33.94,2,5.15,7.63,12.6,6.16,8.16,33.07,7.71,35.41,7.65,1.36-1.53,11.17-18.6,17.56-29.94a.49.49,0,0,1,.5-.25.51.51,0,0,1,.42.38c.18.72,4.46,17.77,4.59,21s.09,48,.08,49.88Z" style="fill:#263238"></path><path d="M187,236.76c-4.76-5.8-8-11.23-8.28-15.6a50.35,50.35,0,0,1,6.76-3.27c4-1.24,36.31,2.15,36.31,2.15l4.63,2.82c.3,3.43.53,10.8-2.31,15.75-3.81,6.63-13.82,13.5-13.82,13.5l-3,13.63-4.66-16.05S192.33,243.32,187,236.76Z" style="fill:#263238"></path><path d="M207.23,266.24a.49.49,0,0,1-.48-.36L202.15,250c-1.34-.85-10.59-6.84-15.59-12.93h0c-5.4-6.59-8.15-11.79-8.39-15.89a.5.5,0,0,1,.26-.47,49.48,49.48,0,0,1,6.85-3.31c4.06-1.25,35.19,2,36.52,2.13a.48.48,0,0,1,.2.07l4.63,2.82a.54.54,0,0,1,.24.38c.33,3.86.48,11.08-2.37,16.05-3.6,6.27-12.46,12.6-13.82,13.55l-3,13.44a.49.49,0,0,1-.47.39Zm-28-44.8c.34,3.85,3,8.76,8.13,15h0c5.27,6.42,15.41,12.77,15.51,12.83a.49.49,0,0,1,.21.28l4.12,14.17L209.75,252a.52.52,0,0,1,.2-.3c.1-.07,10-6.88,13.68-13.34,2.74-4.78,2.52-12,2.26-15.21l-4.31-2.63c-11.17-1.16-32.92-3.1-36-2.16A48.49,48.49,0,0,0,179.2,221.44Z" style="fill:#263238"></path><path d="M241.29,160.34s11.38,1.76,9.82,6-24.44,2-24.44,2l.27-8S239,159.66,241.29,160.34Z" style="fill:#787878"></path><path d="M238.72,169.47c-5.52,0-11-.51-12.1-.63a.49.49,0,0,1-.45-.51l.27-8.05a.49.49,0,0,1,.47-.48c.49,0,12-.63,14.49,0,.63.1,8.2,1.36,10,4.35a2.61,2.61,0,0,1,.21,2.34C250.73,168.87,244.67,169.47,238.72,169.47Zm-11.54-1.58c8.73.84,22.44,1.1,23.46-1.7a1.65,1.65,0,0,0-.13-1.48c-1.3-2.2-7.15-3.55-9.3-3.88h-.06c-1.76-.52-10.1-.23-13.73,0Z" style="fill:#263238"></path><path d="M238.2,159.69l-1.52,25.69s-2,29.15-3.59,31.89-6.94,3.71-6.94,3.71-5.56,14.94-11.32,19.55-8.22,5.09-10.37,3.83S185.77,230.72,184.22,225s-1.46-8.37-1.46-8.37l.36-36.17-2.18-12.16s20.31-9.37,32.93-9.65A208,208,0,0,1,238.2,159.69Z" style="fill:#fff"></path><path d="M206.57,245.46a4.66,4.66,0,0,1-2.37-.66c-1.92-1.13-18.84-13.68-20.47-19.63-1.55-5.69-1.48-8.4-1.47-8.51l.36-36.16-2.17-12.07a.52.52,0,0,1,.28-.55c.21-.09,20.55-9.41,33.13-9.69a213.77,213.77,0,0,1,24.4,1,.5.5,0,0,1,.44.53l-1.52,25.69c-.2,3-2,29.35-3.66,32.12-1.51,2.55-5.84,3.63-7,3.88-.79,2.08-5.93,15.15-11.37,19.51C211.25,244.05,208.67,245.46,206.57,245.46ZM181.5,168.63l2.11,11.78-.35,36.27s-.07,2.71,1.44,8.22,17.64,17.65,20,19c1.86,1.09,4.06.82,9.81-3.79,5.59-4.48,11.11-19.19,11.16-19.34a.56.56,0,0,1,.38-.32c.05,0,5.12-.95,6.6-3.46,1.28-2.17,3-23.6,3.52-31.67l1.5-25.22a212.82,212.82,0,0,0-23.8-.94C202.42,159.44,184.25,167.4,181.5,168.63Z" style="fill:#263238"></path><path d="M241.29,160.34s-2.34-21.53-4.73-24.12-15.12-10.34-28.31-10-31.38,15.14-32.4,18.63,2.45,24.58,2.45,24.58l5.87-1.75s19.24-7.22,30.7-7.65,19.7-.92,20.67-.77S241.29,160.34,241.29,160.34Z" style="fill:#92E3A9"></path><path d="M178.3,169.89a.48.48,0,0,1-.26-.07.5.5,0,0,1-.23-.34c-.14-.87-3.48-21.26-2.44-24.81,1.1-3.78,19.69-18.68,32.87-19s26,7.27,28.69,10.2c2.43,2.63,4.61,22.18,4.86,24.4a.56.56,0,0,1-.16.43.57.57,0,0,1-.44.12c-.05,0-4.79-1-5.73-1.11-.54-.09-4.06.07-8.93.28-3.24.15-7.2.32-11.64.49-11.25.42-30.35,7.55-30.54,7.62l-5.9,1.76A.39.39,0,0,1,178.3,169.89ZM209,126.67h-.77c-13,.3-31.06,15.28-31.93,18.27-.76,2.6,1.17,16.38,2.38,23.8l5.32-1.59c.16-.06,19.41-7.24,30.83-7.67,4.43-.17,8.39-.34,11.62-.49,5.89-.26,8.52-.37,9.14-.27s3.74.71,5.1,1c-.72-6.39-2.73-21.2-4.53-23.15S222.33,126.67,209,126.67Z" style="fill:#263238"></path><path d="M223.84,169.41a30.76,30.76,0,0,1,11-1.56c5.76.35,9.66,2.5,9.32,3.66S244,180.32,240,182s-11.27.62-12.82-.09-2.75-7-4.68-7.29-3.17,2.23-3.47,4.34-4.22,4.75-8.43,4.91-9-.43-10.63-3a30.63,30.63,0,0,1-2.74-6.6l-12.64-.48-.29-2.67,17.68-3a38.49,38.49,0,0,1,11.27-.42c5.58.75,6.74,1.28,7.9,1.43S223.84,169.41,223.84,169.41Z" style="fill:#263238"></path><path d="M209.38,184.39c-3.36,0-8.11-.52-9.84-3.3a29.42,29.42,0,0,1-2.68-6.37l-12.29-.47a.5.5,0,0,1-.48-.45l-.29-2.66a.49.49,0,0,1,.42-.55l17.68-3a38.87,38.87,0,0,1,11.42-.42,63,63,0,0,1,6.69,1.18,12,12,0,0,0,1.2.24c1,.12,2.2.24,2.56.27a31,31,0,0,1,11.14-1.55c4.93.3,8.59,1.9,9.53,3.24a1.19,1.19,0,0,1,.23,1.06c0,.19-.1.67-.16,1.23-.28,2.63-.86,8.11-4.32,9.58-4.08,1.74-11.55.66-13.22-.1-.89-.4-1.52-1.88-2.26-3.59-.64-1.49-1.51-3.53-2.29-3.65a1.47,1.47,0,0,0-1.16.3,5.85,5.85,0,0,0-1.73,3.61c-.37,2.54-4.78,5.18-8.91,5.34ZM185,173.27l12.21.46a.51.51,0,0,1,.47.37,29.89,29.89,0,0,0,2.67,6.46c1.24,2,5,3,10.2,2.81,3.95-.15,7.67-2.59,7.94-4.48a6.66,6.66,0,0,1,2.14-4.27,2.48,2.48,0,0,1,1.91-.49c1.32.21,2.16,2.17,3,4.24.54,1.27,1.22,2.84,1.75,3.08,1.52.69,8.65,1.69,12.42.09,2.92-1.24,3.46-6.32,3.72-8.77a11.52,11.52,0,0,1,.19-1.4s0-.08-.09-.21c-.67-.95-3.93-2.51-8.78-2.81A30.48,30.48,0,0,0,224,169.88a.78.78,0,0,1-.22,0s-1.54-.14-2.71-.29c-.39-.05-.77-.14-1.3-.26a60,60,0,0,0-6.6-1.16,38.42,38.42,0,0,0-11.1.41l-17.23,2.89Z" style="fill:#263238"></path><path d="M188.31,175.91s-4.44-11.13-11-8.58,1.13,14.69,3.9,17.26a13.49,13.49,0,0,0,7,3" style="fill:#fff"></path><path d="M188.17,188.08h0a13.94,13.94,0,0,1-7.29-3.12c-2.31-2.15-7.47-10-6.55-14.77a4.26,4.26,0,0,1,2.81-3.33c7-2.69,11.49,8.39,11.68,8.86a.5.5,0,1,1-.93.37c0-.11-4.32-10.63-10.39-8.3a3.28,3.28,0,0,0-2.19,2.59c-.8,4.18,4,11.76,6.25,13.84a13.05,13.05,0,0,0,6.71,2.86.52.52,0,0,1,.45.55A.51.51,0,0,1,188.17,188.08Z" style="fill:#263238"></path><path d="M241.29,160.34c-1.33-.56-5,.43-6.63.59-2.46.24-4.93.52-7.37.88a68.56,68.56,0,0,0-14.8,3.77c-8.8,3.44-19.11,5.75-28.32,2.06,0,0,7.74-7.75,27.38-9.63S241.29,160.34,241.29,160.34Z" style="fill:#b2b2b2"></path><path d="M194.41,170A27.77,27.77,0,0,1,184,168.11a.5.5,0,0,1-.3-.37.51.51,0,0,1,.14-.45c.32-.32,8.09-7.9,27.68-9.78,18.42-1.77,28.64,1.85,29.88,2.33l.1,0a.56.56,0,0,1,.15.1.51.51,0,0,1,.11.57.49.49,0,0,1-.64.26h0c-.83-.32-3,.06-4.53.35-.73.13-1.36.24-1.83.29-3,.29-5.22.56-7.35.88A67.52,67.52,0,0,0,212.67,166C205.88,168.7,199.83,170,194.41,170Zm-9.28-2.56c7.39,2.68,16.29,1.9,27.18-2.36a68.3,68.3,0,0,1,14.9-3.79c2.15-.32,4.43-.6,7.4-.89.44,0,1.07-.16,1.75-.28l1.68-.29c-4.34-1.1-13.25-2.62-26.44-1.35C195.37,160.06,187.29,165.72,185.13,167.47Z" style="fill:#263238"></path><path d="M224.22,195.34a.5.5,0,0,1-.5-.48l-.08-2.1a.5.5,0,0,1,.4-.51c.91-.19,3.49-.88,4.47-1.78.62-.58-.43-4.8-1.8-8.38a.5.5,0,0,1,.29-.65.5.5,0,0,1,.64.29c.73,1.89,3,8.15,1.55,9.48a12,12,0,0,1-4.54,1.92l.07,1.69a.5.5,0,0,1-.48.52Z" style="fill:#263238"></path><path d="M215.94,200.54a18,18,0,0,1-3.9-.36,13.34,13.34,0,0,1-7.52-4.32.5.5,0,0,1,.8-.6,12.56,12.56,0,0,0,7,3.94c4.84,1.11,14.38-.91,14.48-.93a.49.49,0,0,1,.59.38.5.5,0,0,1-.38.6A62.16,62.16,0,0,1,215.94,200.54Z" style="fill:#263238"></path><path d="M203,195.94a.5.5,0,0,1-.49-.4.51.51,0,0,1,.4-.59l4.94-.95a.5.5,0,0,1,.58.4.49.49,0,0,1-.39.58l-4.94,1Z" style="fill:#263238"></path><path d="M223.85,220.87s-10.12.38-12.8.29a11.38,11.38,0,0,1-7.6-3.54c-1.8-2-5.79-6.48-5.79-6.48s5,11.1,10.76,16.43a33.45,33.45,0,0,0,11,7.05s5.61-8.44,6.75-13.64Z" style="fill:#263238"></path><path d="M219.4,235.12l-.16,0a33.86,33.86,0,0,1-11.16-7.16c-5.76-5.34-10.67-16.14-10.87-16.6a.48.48,0,0,1,.18-.62.5.5,0,0,1,.64.08s4,4.45,5.8,6.49a10.85,10.85,0,0,0,7.23,3.37c2.64.09,12.67-.28,12.78-.29h0l2.3.11a.47.47,0,0,1,.37.19.51.51,0,0,1,.09.41c-1.15,5.24-6.6,13.47-6.83,13.82A.49.49,0,0,1,219.4,235.12Zm-19.67-20.93c1.92,3.68,5.34,9.59,9,13A34.32,34.32,0,0,0,219.19,234c1-1.53,5.12-8.07,6.33-12.56l-1.67-.08c-.64,0-10.19.38-12.82.29a11.79,11.79,0,0,1-7.95-3.71Z" style="fill:#263238"></path><path d="M213.19,145.71a9.35,9.35,0,0,0,5,7.92A9.37,9.37,0,0,0,231.91,145a9.37,9.37,0,1,0-18.72.71Z" style="fill:#fff"></path><path d="M222.55,155.22a9.86,9.86,0,0,1-9.86-9.5h0a9.85,9.85,0,0,1,9.49-10.23,9.87,9.87,0,0,1,.74,19.72Zm-8.86-9.53a8.9,8.9,0,0,0,4.72,7.5,8.86,8.86,0,1,0-.58-15.35,8.91,8.91,0,0,0-4.14,7.85Z" style="fill:#263238"></path><path d="M229.29,152.34a.46.46,0,0,1-.33-.13,9.86,9.86,0,0,1-.53-14.19.5.5,0,0,1,.69,0,9.84,9.84,0,0,1,.53,14.19A.51.51,0,0,1,229.29,152.34Zm-.47-13.26a8.86,8.86,0,0,0,.45,12,8.86,8.86,0,0,0-.45-12Z" style="fill:#263238"></path><path d="M218.18,154.13a.64.64,0,0,1-.24,0,9.93,9.93,0,0,1-5.25-8.36h0A9.93,9.93,0,0,1,217.3,137a.52.52,0,0,1,.5,0,9.88,9.88,0,0,1,.64,17.09A.48.48,0,0,1,218.18,154.13Zm-4.49-8.44a8.91,8.91,0,0,0,4.46,7.36,8.87,8.87,0,0,0-.56-15.05,8.91,8.91,0,0,0-3.9,7.69Z" style="fill:#263238"></path><path d="M219,395.71l-.13,0a.51.51,0,0,1-.36-.61c4.07-15.65,3.64-63.33,2.74-89.05a.5.5,0,0,1,1,0c.9,25.76,1.32,73.57-2.77,89.33A.5.5,0,0,1,219,395.71Z" style="fill:#263238"></path><path d="M221.51,301.05a.5.5,0,0,1-.5-.48c-.77-19.45-1.82-34.57-1.83-34.72a.49.49,0,0,1,.24-.46,85,85,0,0,0,13.31-10.17,18.94,18.94,0,0,0,4.15-7.56.49.49,0,1,1,.94.31,19.81,19.81,0,0,1-4.39,8,84.53,84.53,0,0,1-13.24,10.14c.16,2.24,1.11,16.5,1.82,34.46a.5.5,0,0,1-.48.51Z" style="fill:#263238"></path><path d="M238.62,243.59h-.1a.5.5,0,0,1-.38-.6,64.09,64.09,0,0,0,1.23-8.24.51.51,0,0,1,.54-.47.5.5,0,0,1,.46.54,65.61,65.61,0,0,1-1.26,8.39A.5.5,0,0,1,238.62,243.59Z" style="fill:#263238"></path><path d="M198.84,400h0a.5.5,0,0,1-.46-.54s.14-1.79.39-5.94a.5.5,0,0,1,1,.06c-.26,4.17-.39,6-.39,6A.5.5,0,0,1,198.84,400Z" style="fill:#263238"></path><path d="M199.56,388.4h0a.51.51,0,0,1-.47-.53c.26-4.6.59-14,1-25,.33-9.54.71-20.36,1.11-30.19,1.6-38.7-5.91-62.72-6.69-65.08A79.74,79.74,0,0,1,177,254.79,44.51,44.51,0,0,1,167,240a.5.5,0,1,1,.92-.39,43.44,43.44,0,0,0,9.72,14.47,77.44,77.44,0,0,0,17.39,12.78.49.49,0,0,1,.25.28c.09.25,8.5,24.86,6.81,65.64-.4,9.83-.78,20.64-1.11,30.18-.37,10.94-.7,20.38-1,25A.5.5,0,0,1,199.56,388.4Z" style="fill:#263238"></path><path d="M166.41,237.44a.5.5,0,0,1-.47-.34,32.6,32.6,0,0,1-1-3.22.5.5,0,0,1,.38-.59.5.5,0,0,1,.6.38,29.58,29.58,0,0,0,.93,3.11.5.5,0,0,1-.31.63A.51.51,0,0,1,166.41,237.44Z" style="fill:#263238"></path><path d="M161.9,285a9.36,9.36,0,1,0,4.37-8.29A9.36,9.36,0,0,0,161.9,285Z" style="fill:#fff"></path><path d="M171.25,294.55a9.88,9.88,0,0,1-9.85-9.5h0a9.85,9.85,0,0,1,16.42-7.73,9.86,9.86,0,0,1,.54,14.2,9.87,9.87,0,0,1-6.74,3Zm0-18.74h-.34a8.88,8.88,0,0,0-8.52,9.2h0a8.87,8.87,0,0,0,4.71,7.51,8.74,8.74,0,0,0,4.48,1,8.83,8.83,0,0,0,6-2.72,8.87,8.87,0,0,0-6.38-15Z" style="fill:#263238"></path><path d="M178,291.67a.5.5,0,0,1-.34-.13,9.82,9.82,0,0,1-3.28-7h0a9.81,9.81,0,0,1,2.75-7.21.51.51,0,0,1,.69,0,9.86,9.86,0,0,1,.54,14.2A.51.51,0,0,1,178,291.67Zm-2.62-7.14a8.82,8.82,0,0,0,2.59,5.93,8.86,8.86,0,0,0-.45-12,8.79,8.79,0,0,0-2.14,6.12Z" style="fill:#263238"></path><path d="M166.88,293.46a.46.46,0,0,1-.23-.06,9.88,9.88,0,0,1-5.25-8.35h0a9.9,9.9,0,0,1,4.61-8.73.5.5,0,0,1,.5,0,9.88,9.88,0,0,1,.64,17.08A.56.56,0,0,1,166.88,293.46Zm-.59-16.13A8.89,8.89,0,0,0,162.4,285h0a8.88,8.88,0,0,0,4.46,7.37,8.86,8.86,0,0,0-.57-15.05Z" style="fill:#263238"></path><path d="M270.36,276.84c0-2.25,0-4.19-.09-5.68" style="fill:#fff"></path><path d="M270.36,277.34h0a.5.5,0,0,1-.5-.5c0-2.34,0-4.24-.09-5.64a.51.51,0,0,1,.47-.54.5.5,0,0,1,.53.47c.09,1.43.13,3.36.09,5.72A.49.49,0,0,1,270.36,277.34Z" style="fill:#263238"></path><path d="M267.45,321.58a.52.52,0,0,1-.27-.07.51.51,0,0,1-.16-.69c.12-.19,11.5-18.6,12-34a.51.51,0,0,1,.51-.48.5.5,0,0,1,.49.51c-.48,15.64-12,34.27-12.12,34.46A.49.49,0,0,1,267.45,321.58Z" style="fill:#263238"></path><path d="M137.43,283.38a.51.51,0,0,1-.46-.31c-.66-1.6-1.24-2.95-1.72-4a.5.5,0,0,1,.91-.41c.48,1.06,1.07,2.42,1.73,4a.5.5,0,0,1-.27.66A.58.58,0,0,1,137.43,283.38Z" style="fill:#263238"></path><path d="M142.55,315.18a.48.48,0,0,1-.2,0,.51.51,0,0,1-.27-.65c1.27-3,3.15-7.95,3.11-9,0-.93-2.88-8.9-6.08-17.06A.5.5,0,1,1,140,288c2.52,6.42,6.1,16.07,6.14,17.38.07,1.67-2.84,8.67-3.17,9.46A.51.51,0,0,1,142.55,315.18Z" style="fill:#263238"></path><path d="M88.75,337c6.2,8.22,32.21,7.93,35.62,7.85l16,32.95s19,10.12,20.25,11.5,12.39,19.76,12.44,21a2.06,2.06,0,0,1-2,2.12c-1,0-2.56-3-3.21-4l-4.77-7.38-2.74-2.15s5.55,11.85,6.23,13.46,1.81,4.84.82,5.69S164.2,419,164,418s-2.46-5.43-2.46-5.43l-6.44-8.34-2.74-2.35s5.72,11,6.61,12.83,2.26,5.84,1.47,6.48-2,1.31-2.85.32-2.87-5.62-3.31-6.42-6.86-8.53-6.86-8.53,3.82,9.26,4.91,11.06,2.42,4.4,1.22,5.06a3.7,3.7,0,0,1-2.87-.1L146.75,417s-5-7-5.58-7.35-10.69-7.16-12.45-10.37-7.63-18.1-7.63-18.1S97.6,359.59,91.54,344.9c-1.52-3.66-2.74-6.67-3.72-9.13C88.12,336.18,88.42,336.59,88.75,337Z" style="fill:#fff"></path><path d="M152.34,423.46a5.26,5.26,0,0,1-1.91-.41.55.55,0,0,1-.2-.17l-3.89-5.58c-2.31-3.25-5-6.89-5.45-7.22-.09-.05-10.73-7.11-12.61-10.54-1.69-3.08-7-16.6-7.61-18.05-1.56-1.45-23.74-22.22-29.6-36.4-1.51-3.66-2.73-6.67-3.71-9.13a.51.51,0,0,1,.22-.63.5.5,0,0,1,.65.15l.91,1.24h0c6.11,8.09,32.26,7.72,35.22,7.65a.53.53,0,0,1,.46.28l15.94,32.8c2.52,1.35,19,10.16,20.24,11.53.85.92,12.51,19.72,12.57,21.31a2.56,2.56,0,0,1-2.45,2.64h0c-1,0-2-1.57-3.16-3.46l-.45-.74c-.61-.93-4.28-6.61-4.73-7.31l-1-.8c1.6,3.42,4.84,10.35,5.35,11.58,1,2.3,1.86,5.25.69,6.26a3.78,3.78,0,0,1-3.27.65,1.42,1.42,0,0,1-1-1c-.19-.78-1.81-4.1-2.41-5.32l-6.36-8.21-.76-.65c1.73,3.34,4.81,9.28,5.44,10.56,0,.06,2.75,5.94,1.33,7.09-2,1.62-3.14.72-3.54.25a33,33,0,0,1-2.68-5.07c-.31-.67-.56-1.2-.69-1.43-.22-.41-2.46-3.18-4.65-5.84,1.21,2.85,2.92,6.78,3.57,7.87,1.4,2.31,2,3.91,1.7,4.89a1.44,1.44,0,0,1-.67.87A3,3,0,0,1,152.34,423.46ZM151,422.19a3.09,3.09,0,0,0,2.3.06.37.37,0,0,0,.18-.25c.09-.31.1-1.34-1.58-4.12-1.1-1.8-4.79-10.74-5-11.12a.5.5,0,0,1,.21-.62.51.51,0,0,1,.64.11c.66.8,6.46,7.79,6.91,8.61.13.24.39.79.72,1.49a35.07,35.07,0,0,0,2.53,4.84c.46.53,1.18.41,2.15-.37.34-.47-.54-3.72-1.6-5.88-.87-1.78-6.55-12.71-6.61-12.82a.5.5,0,0,1,.77-.61l2.75,2.35.07.07,6.44,8.35a53.07,53.07,0,0,1,2.54,5.61c0,.15.24.23.36.27a2.8,2.8,0,0,0,2.31-.46c.41-.36.29-2.12-1-5.12-.66-1.58-6.16-13.32-6.21-13.44a.5.5,0,0,1,.14-.6.51.51,0,0,1,.62,0l2.74,2.14a.69.69,0,0,1,.11.13l4.77,7.38.47.77c1.18,2,1.91,3,2.3,3a1.56,1.56,0,0,0,1.49-1.6c-.23-1.26-10.8-19.05-12.3-20.67-.9-1-12.53-7.35-20.13-11.4a.56.56,0,0,1-.21-.22l-15.87-32.66c-4,.07-26.9.17-34.58-6.83q1.09,2.71,2.52,6.16c6,14.42,29.2,35.9,29.43,36.12a.46.46,0,0,1,.13.18c.06.15,5.88,14.91,7.6,18.05s11.41,9.65,12.27,10.18c.64.39,4.22,5.37,5.73,7.49Z" style="fill:#263238"></path><path d="M160.38,399.43a.52.52,0,0,1-.38-.17l-3.21-3.77a.49.49,0,0,1,.06-.7.49.49,0,0,1,.7.06l3.21,3.76a.5.5,0,0,1-.38.82Z" style="fill:#263238"></path><path d="M242.27,402.94c.1-1.22,12.06-19.06,13.4-20.38S276.44,372,276.44,372L294,337.42c3.36-.11,7.59-.39,12.73-1,14.42-1.64,21.73-7.87,24.89-11.58.28.39.55.71.68.54-1.09,2.41-2.45,5.36-4.13,8.94-6.75,14.39-32.64,41.94-32.64,41.94S289,390.9,287.08,394s-12.27,9.42-12.92,9.77-5.92,7.08-5.92,7.08l-4.15,5.39a3.66,3.66,0,0,1-2.86,0c-1.17-.71.27-3.25,1.44-5s5.43-10.81,5.43-10.81-6.78,7.42-7.25,8.2-2.71,5.3-3.61,6.25-2.07.24-2.83-.44.8-4.65,1.77-6.41,7.21-12.51,7.21-12.51l-2.85,2.22-6.83,8s-2.41,4.31-2.7,5.31-2.53.81-3.48-.09.35-4.07,1.09-5.65,6.85-13.15,6.85-13.15l-2.83,2-5.12,7.15c-.69,1-2.37,3.89-3.39,3.81A2,2,0,0,1,242.27,402.94Z" style="fill:#fff"></path><path d="M262.54,417.05a3,3,0,0,1-1.57-.4,1.34,1.34,0,0,1-.63-.9c-.22-1,.41-2.56,1.92-4.81.71-1.05,2.59-4.9,3.93-7.69-2.31,2.56-4.67,5.22-4.92,5.62-.13.22-.41.74-.75,1.4a32.64,32.64,0,0,1-2.91,4.94c-.43.44-1.61,1.29-3.53-.42-1.36-1.21,1.63-7,1.67-7,.68-1.25,4-7,5.92-10.29l-.79.6-6.79,8a54,54,0,0,0-2.6,5.12,1.42,1.42,0,0,1-1.07.94,3.8,3.8,0,0,1-3.23-.81c-1.12-1.06-.09-4,1-6.22.57-1.2,4.12-8,5.88-11.32l-1.06.75-5.06,7.09c-.13.18-.29.43-.48.71-1.23,1.86-2.32,3.41-3.36,3.31a2.56,2.56,0,0,1-2.32-2.75c.13-1.58,12.66-19.82,13.55-20.7,1.33-1.31,18.14-9.32,20.75-10.56l17.5-34.44a.5.5,0,0,1,.43-.28c3.86-.13,8.13-.45,12.68-1,14.34-1.63,21.54-7.84,24.56-11.41a.54.54,0,0,1,.4-.17.49.49,0,0,1,.39.2,3,3,0,0,0,.27.34.51.51,0,0,1,.47.71c-1.1,2.41-2.46,5.36-4.14,8.95-6.55,14-31.29,40.53-32.67,42-.56,1.27-6.61,14.68-8.46,17.71-2.05,3.36-13,9.89-13.1,10-.43.3-3.3,3.81-5.77,6.95l-4.14,5.39a.56.56,0,0,1-.21.16A5.24,5.24,0,0,1,262.54,417.05Zm5.56-17.14a.53.53,0,0,1,.27.08.51.51,0,0,1,.18.63c-.18.37-4.28,9.13-5.46,10.88-1.81,2.7-1.85,3.72-1.78,4a.38.38,0,0,0,.18.26,3.08,3.08,0,0,0,2.3,0l4-5.27c1.61-2.05,5.42-6.85,6.08-7.22.84-.46,11-6.68,12.73-9.59s8.37-17.53,8.44-17.67a.42.42,0,0,1,.09-.14c.26-.28,25.91-27.66,32.54-41.81,1.58-3.35,2.87-6.15,3.92-8.47l0,0c-3.32,3.73-10.73,9.7-24.82,11.3-4.46.51-8.65.83-12.46,1l-17.45,34.33a.51.51,0,0,1-.23.23C268.87,376.16,257,382,256,382.91c-1.57,1.55-12.93,18.76-13.26,20.09a1.55,1.55,0,0,0,1.41,1.65h0c.36,0,1.17-1,2.43-2.86.19-.3.36-.56.5-.75.7-1,5.11-7.14,5.11-7.14a.34.34,0,0,1,.12-.12l2.83-2a.5.5,0,0,1,.73.64c-.06.12-6.1,11.59-6.84,13.14-1.39,2.94-1.59,4.69-1.19,5.07a2.77,2.77,0,0,0,2.28.56c.12,0,.32-.11.37-.25a52.9,52.9,0,0,1,2.74-5.41l6.88-8.11.08-.07,2.85-2.22a.5.5,0,0,1,.74.64c-.06.11-6.24,10.76-7.2,12.5-1.16,2.11-2.19,5.31-1.86,5.81.92.81,1.63,1,2.12.46a35,35,0,0,0,2.75-4.72c.36-.68.65-1.22.79-1.45.49-.8,6.61-7.52,7.31-8.28A.47.47,0,0,1,268.1,399.91Zm-25.83,3h0Z" style="fill:#263238"></path><path d="M308.55,325.9c9.69-4.54,15.73-9,19.26-12.24,3.54,5.1,5.82,8.36,5.82,8.36s-5.95,12.05-26.89,14.43c-14.07,1.59-21.37.93-22.46.7-.54-.11-2.44-2.39-4.21-4.65C283.66,332.75,294,332.7,308.55,325.9Z" style="fill:#263238"></path><path d="M290.48,338a39,39,0,0,1-6.3-.35c-.3-.06-.86-.18-4.51-4.83a.5.5,0,0,1,0-.55.48.48,0,0,1,.47-.26c3.72.27,13.92.16,28.23-6.56h0c9.83-4.6,15.83-9.15,19.14-12.15a.52.52,0,0,1,.39-.13.54.54,0,0,1,.36.21c3.54,5.1,5.82,8.36,5.82,8.36a.52.52,0,0,1,0,.51c-.25.5-6.31,12.32-27.29,14.7A146.87,146.87,0,0,1,290.48,338Zm-9.34-4.94c2.57,3.21,3.17,3.58,3.27,3.62,1.16.24,8.41.85,22.27-.72,18.72-2.12,25.35-12.17,26.36-13.9-.58-.83-2.53-3.62-5.32-7.64a79.42,79.42,0,0,1-19,11.94C295.47,332.58,285.63,333.2,281.14,333.05Zm27.41-7.15h0Z" style="fill:#263238"></path><path d="M106.19,335.15c6.82,3.2,17.76,3,23.05,2.71-2.12,3.67-4.14,7-4.51,7-.81,0-29.44.84-36-7.84s-7.79-13-7.79-13,2.26-3.59,5.28-8.44C90.09,320.68,99.11,331.81,106.19,335.15Z" style="fill:#263238"></path><path d="M122,345.4c-7.5,0-28.08-.69-33.65-8.08-6.53-8.65-7.82-12.94-7.87-13.12a.49.49,0,0,1,.06-.41s2.26-3.59,5.27-8.44a.49.49,0,0,1,.41-.23.47.47,0,0,1,.42.19c3.59,4.73,12.72,16.07,19.76,19.38h0c6.62,3.12,17.13,3,22.81,2.67a.48.48,0,0,1,.46.24.49.49,0,0,1,0,.51c-4.19,7.22-4.55,7.24-4.93,7.25C124.7,345.36,123.67,345.4,122,345.4ZM81.51,324.12c.34.95,2,5.16,7.63,12.6,6.19,8.19,33.29,7.7,35.44,7.65.24-.24,1-1.3,3.77-6-5.94.3-15.9.23-22.37-2.81h0c-7-3.28-15.8-14-19.7-19.11C83.86,320.38,82,323.35,81.51,324.12Z" style="fill:#263238"></path></g><g id="freepik--character-2--inject-20"><path d="M419.31,156.24s4.93.89,0,4.7-14.77,6-17.68,6.49-5.6.9-5.6.9l-.9-10.3S413.27,153.77,419.31,156.24Z" style="fill:#fff"></path><path d="M396,168.83a.51.51,0,0,1-.31-.11.48.48,0,0,1-.19-.35l-.89-10.3a.49.49,0,0,1,.38-.53c.74-.18,18.27-4.24,24.44-1.79.38.08,2.17.51,2.5,1.86.26,1.09-.5,2.3-2.34,3.72-5.14,4-15.44,6.21-17.92,6.59-2.9.45-5.59.9-5.59.9Zm-.36-10.41.81,9.32c.93-.15,2.94-.48,5.07-.8,2.42-.38,12.48-2.55,17.46-6.4,1.92-1.49,2.06-2.32,2-2.69-.16-.68-1.35-1-1.76-1.12l-.09,0C413.8,154.53,398.42,157.8,395.67,158.42Z" style="fill:#263238"></path><path d="M312.59,368.35c.17,1,1,58,1.12,67.32H452.9c.18-.49.35-1,.51-1.57,0,0-4.2-47.64-4.39-48.6s-.57-56.59-.57-56.59l33.16-8.58s-.57-7.24-5.72-21.15-23.06-24.58-23.06-24.58-12.57-19.25-27.25-31.25a157,157,0,0,0-28.2-18.48l-70.31-4.58s-25.35,17.53-35.45,33.54S280,295,285.91,310.23,312.39,367.21,312.59,368.35Z" style="fill:#92E3A9"></path><path d="M452.9,436.17H313.71a.5.5,0,0,1-.5-.49c-.43-30.22-1-65.87-1.12-67.23-.17-.59-2.78-6.05-5.79-12.37-6.75-14.16-16.94-35.56-20.86-45.66-5.63-14.54-5-39.78,5.76-56.86,10-15.91,35.33-33.5,35.58-33.68a.59.59,0,0,1,.32-.09l70.31,4.58a.41.41,0,0,1,.19,0A158.9,158.9,0,0,1,425.9,243c14,11.49,26.3,29.78,27.29,31.27,1.45.89,18.22,11.4,23.17,24.78,5.11,13.82,5.72,21,5.75,21.28a.5.5,0,0,1-.38.53L449,329.3c.14,19.14.42,55,.57,56.12.18.94,4,43.75,4.38,48.63a.55.55,0,0,1,0,.18c-.15.55-.32,1.08-.52,1.61A.5.5,0,0,1,452.9,436.17Zm-138.7-1H452.55c.13-.37.24-.74.35-1.12-1.45-16.42-4.21-47.55-4.37-48.45s-.54-51-.58-56.69a.5.5,0,0,1,.38-.49L481.06,320c-.2-1.72-1.26-8.77-5.64-20.6-5-13.59-22.66-24.22-22.84-24.33a.41.41,0,0,1-.16-.16c-.13-.19-12.71-19.32-27.15-31.13a157.73,157.73,0,0,0-28-18.38l-70-4.56c-2.06,1.45-25.62,18.18-35.16,33.3-10.47,16.59-11.1,42-5.68,56,3.91,10.08,14.09,31.45,20.83,45.6,4.39,9.19,5.81,12.2,5.88,12.62h0C313.25,369.31,314,419.08,314.2,435.17Z" style="fill:#263238"></path><path d="M448.15,301.63a.45.45,0,0,1-.16,0,.49.49,0,0,1-.33-.4c-2.53-17.25-14.07-37.32-18.92-45.15a.5.5,0,0,1,.17-.69.49.49,0,0,1,.68.16c6,9.62,16.21,28,18.92,44.63,1.94-1.63,7.66-6,14.62-7a.5.5,0,0,1,.56.42.49.49,0,0,1-.42.57c-8.1,1.22-14.71,7.33-14.77,7.4A.56.56,0,0,1,448.15,301.63Z" style="fill:#263238"></path><path d="M428,254.41a.51.51,0,0,1-.43-.23c-1.1-1.73-1.77-2.71-1.77-2.71a.5.5,0,1,1,.82-.57s.68,1,1.8,2.75a.49.49,0,0,1-.16.69A.48.48,0,0,1,428,254.41Z" style="fill:#263238"></path><path d="M448.57,298.08l-.16,0a.5.5,0,0,1-.31-.63,15.86,15.86,0,0,1,6.54-8,.5.5,0,0,1,.56.83,14.78,14.78,0,0,0-6.15,7.5A.5.5,0,0,1,448.57,298.08Z" style="fill:#263238"></path><path d="M457.29,288.92a.5.5,0,0,1-.23-.94,22.78,22.78,0,0,1,3.06-1.33.5.5,0,0,1,.31,1,19.76,19.76,0,0,0-2.91,1.26A.59.59,0,0,1,457.29,288.92Z" style="fill:#263238"></path><path d="M334.23,206.84l-10,15,46.11,32.58,9.15-12.76,10.74,4.16,2.6-7.6,13-3s-12.2-16-13.91-17.73-5.53-1.9-5.53-1.9Z" style="fill:#92E3A9"></path><path d="M370.32,254.9a.52.52,0,0,1-.29-.09l-46.11-32.58a.51.51,0,0,1-.13-.69l10-15a.5.5,0,0,1,.49-.22l52.1,8.7c.11,0,4,.21,5.8,2s13.46,17.12,14,17.77a.52.52,0,0,1,.08.48.51.51,0,0,1-.36.31l-12.69,3L390.68,246a.5.5,0,0,1-.26.29.48.48,0,0,1-.39,0l-10.38-4-8.92,12.45A.49.49,0,0,1,370.32,254.9ZM324.9,221.69l45.31,32,8.85-12.37a.5.5,0,0,1,.59-.17l10.25,4,2.44-7.1a.49.49,0,0,1,.35-.32l12.21-2.87c-2.25-2.95-11.92-15.58-13.4-17.06s-5.16-1.76-5.19-1.76l-51.84-8.65Z" style="fill:#263238"></path><path d="M395.13,158s8.29,33.58,7.17,41-11.87,22.61-11.87,22.61l-.22,24.19L373,234.38s-26.65-17.69-30.9-20.83a77.35,77.35,0,0,1-7.84-6.71l4.93-15.23L338,173s3.8-16.35,27.31-17.47S395.13,158,395.13,158Z" style="fill:#fff"></path><path d="M390.21,246.3a.47.47,0,0,1-.28-.09l-17.24-11.42c-.27-.17-26.7-17.73-30.92-20.83a78,78,0,0,1-7.89-6.77.5.5,0,0,1-.12-.51l4.89-15.13-1.11-18.49a.76.76,0,0,1,0-.15c0-.16,4.17-16.72,27.78-17.85,23.39-1.11,29.79,2.38,30.05,2.53a.49.49,0,0,1,.24.32c.34,1.37,8.29,33.76,7.17,41.17-1.08,7.14-10.75,21.1-11.86,22.69l-.22,24a.52.52,0,0,1-.27.44A.46.46,0,0,1,390.21,246.3ZM334.8,206.7a80.11,80.11,0,0,0,7.56,6.45c4.2,3.09,30.62,20.63,30.88,20.81l16.48,10.91.21-23.26a.47.47,0,0,1,.09-.28c.11-.15,10.69-15.22,11.78-22.4,1.05-6.9-6.37-37.6-7.1-40.56-1.19-.54-8.44-3.31-29.32-2.31-22.08,1.05-26.54,15.9-26.84,17l1.12,18.5a.63.63,0,0,1,0,.19Z" style="fill:#263238"></path><path d="M381.25,194.13a.5.5,0,0,1,0-1c1.94-.06,7.34-.49,8.88-1.69,1.1-.85-.17-11.1-2-20.11a.5.5,0,0,1,1-.19c.91,4.53,3.7,19.46,1.61,21.09s-9.17,1.89-9.47,1.9Z" style="fill:#263238"></path><path d="M376,171.09s-5.35-2.59-9.33-1-6.22,4.14-5.18,4.66,2.76-1.73,6.22-1.9,5.36.52,7.6-.17S376,171.09,376,171.09Z" style="fill:#263238"></path><path d="M361.8,175.3a1.24,1.24,0,0,1-.56-.13.92.92,0,0,1-.53-.91c.06-1.36,2.64-3.45,5.75-4.67,4.13-1.61,9.51.94,9.73,1l0,0c.08,0,.85.49.77,1.2s-1.19,1.15-1.56,1.27a11.42,11.42,0,0,1-4.21.26,27.85,27.85,0,0,0-3.52-.07,9.3,9.3,0,0,0-4.12,1.32A4.22,4.22,0,0,1,361.8,175.3Zm7.72-5.24a7.43,7.43,0,0,0-2.69.46c-3.53,1.38-5.19,3.36-5.12,3.8.2.07.79-.24,1.4-.56a10.23,10.23,0,0,1,4.54-1.44,29.48,29.48,0,0,1,3.63.07,10.43,10.43,0,0,0,3.86-.22c.76-.23.86-.43.86-.44s-.16-.13-.26-.19A16.41,16.41,0,0,0,369.52,170.06Z" style="fill:#263238"></path><path d="M388.93,169.19s4-4.66,6.57-4,2.77,4.49,2.25,4.49-.69-2.76-3.29-1.38S391,171.78,388.93,169.19Z" style="fill:#263238"></path><path d="M390.78,170.92a3,3,0,0,1-2.24-1.42.5.5,0,0,1,0-.63c.43-.5,4.27-4.89,7.08-4.14,2.32.62,3,3.37,2.83,4.63-.1.77-.53.85-.71.85-.45,0-.66-.39-.86-.77-.4-.73-.77-1.43-2.19-.67a13.82,13.82,0,0,0-1.67,1.09A4.13,4.13,0,0,1,390.78,170.92Zm-1.19-1.72c1.05,1.17,1.55.8,2.86-.15a13.09,13.09,0,0,1,1.78-1.16c1.78-.95,2.71-.19,3.21.52a4.69,4.69,0,0,0-.36-1.17,2.71,2.71,0,0,0-1.71-1.54C393.64,165.24,390.84,167.83,389.59,169.2Z" style="fill:#263238"></path><path d="M371.14,179.91c0,1.62-.78,2.93-1.73,2.93s-1.73-1.31-1.73-2.93.77-2.94,1.73-2.94S371.14,178.28,371.14,179.91Z" style="fill:#263238"></path><path d="M394.12,176.45c0,1.62-.77,2.94-1.73,2.94s-1.73-1.32-1.73-2.94.78-2.94,1.73-2.94S394.12,174.83,394.12,176.45Z" style="fill:#263238"></path><path d="M367.68,186.11a.51.51,0,0,1-.17,0l-6.39-2.25a.5.5,0,0,1-.31-.63.51.51,0,0,1,.64-.31l6.4,2.25a.5.5,0,0,1-.17,1Z" style="fill:#263238"></path><path d="M395,181.79a.49.49,0,0,1-.48-.38.5.5,0,0,1,.36-.61l3.46-.86a.48.48,0,0,1,.6.36.5.5,0,0,1-.36.61l-3.46.86Z" style="fill:#263238"></path><path d="M365.61,199.24a.52.52,0,0,1-.45-.26.51.51,0,0,1,.21-.68l5.88-3.11a.49.49,0,0,1,.67.21.49.49,0,0,1-.2.67l-5.88,3.11A.46.46,0,0,1,365.61,199.24Z" style="fill:#263238"></path><path d="M379.27,202.7c-6,0-11.18-4.43-11.4-4.62a.49.49,0,0,1-.05-.7.51.51,0,0,1,.71,0c.05,0,5.28,4.55,11.06,4.37a.49.49,0,0,1,.51.48.5.5,0,0,1-.48.52Z" style="fill:#263238"></path><path d="M377.78,223.31c-3.86,0-5.79-1.44-5.91-1.54a.5.5,0,0,1,.61-.79c.07.06,4.62,3.37,14-.75a.5.5,0,0,1,.66.26.51.51,0,0,1-.26.66A22.87,22.87,0,0,1,377.78,223.31Z" style="fill:#263238"></path><path d="M341.17,171.46s7.62-9,30.23-12.31,28.66-1.57,28.66-1.57-2.91-16.79-6.27-22.62-28.66-9-42.32-2.91-17,20.83-16.57,25.08S338,173,338,173Z" style="fill:#263238"></path><path d="M338,173.53a.5.5,0,0,1-.21-.05.51.51,0,0,1-.28-.34c-.11-.48-2.7-11.72-3.14-16-.54-5.09,3.55-19.69,16.86-25.58,13.51-6,39.36-3.11,43,3.11,3.37,5.84,6.21,22.09,6.33,22.78a.49.49,0,0,1-.16.46.54.54,0,0,1-.47.11c-.06,0-6.31-1.71-28.45,1.58s-29.84,12.06-29.92,12.14a.37.37,0,0,1-.15.13l-3.14,1.57A.59.59,0,0,1,338,173.53Zm32-44.23c-6.54,0-13.24.94-18.39,3.21C338,138.58,335,153.42,335.4,157.08s2.42,12.75,3,15.22l2.48-1.24c.86-1,8.79-9.19,30.47-12.41,18.43-2.74,25.89-2.08,28.11-1.71-.61-3.27-3.2-16.73-6.08-21.73C391.45,131.91,381,129.3,370.06,129.3Zm-28.89,42.16h0Z" style="fill:#263238"></path><path d="M354.16,163.62s8.51,4.71,17,3.36,23.06-6.49,31.79-8.73a65.42,65.42,0,0,1,16.34-2s-12.31-3.81-30.45-1.8S356.17,160.71,354.16,163.62Z" style="fill:#fff"></path><path d="M368,167.73a32.37,32.37,0,0,1-14.05-3.67.47.47,0,0,1-.25-.32.52.52,0,0,1,.08-.4c2.27-3.28,18-7.5,35.06-9.39,18-2,30.53,1.77,30.65,1.81a.5.5,0,0,1,.35.56.52.52,0,0,1-.51.41,66.17,66.17,0,0,0-16.21,2c-3.19.82-7.15,2-11.35,3.31-7.41,2.25-15.06,4.58-20.49,5.44A21.5,21.5,0,0,1,368,167.73Zm-13-4.26c2,1,9.14,4.12,16.14,3,5.35-.85,13.32-3.27,20.35-5.41,4.21-1.28,8.18-2.49,11.4-3.31a67.54,67.54,0,0,1,12.59-1.93,89,89,0,0,0-26.52-.9C371.64,156.86,357.94,160.78,355,163.47Z" style="fill:#263238"></path><path d="M330.87,170.4s-3.11-15.72-.86-23.85,16.59-15.37,16.59-15.37l.86,2.76s-11.4,8.81-13,12.27,2.08,21.43,2.08,21.43Z" style="fill:#b2b2b2"></path><path d="M330.87,170.9a.59.59,0,0,1-.22-.05.5.5,0,0,1-.27-.35c-.13-.65-3.11-15.94-.85-24.08s16.25-15.39,16.84-15.69a.51.51,0,0,1,.42,0,.5.5,0,0,1,.28.32l.87,2.76a.52.52,0,0,1-.17.55c-.12.08-11.33,8.77-12.81,12.07-1.22,2.72,1.11,16.17,2.11,21.13a.51.51,0,0,1-.28.55l-5.7,2.76A.54.54,0,0,1,330.87,170.9Zm15.43-39c-2.58,1.39-13.89,7.84-15.81,14.79s.21,20,.75,23l4.77-2.31c-.53-2.7-3.46-18-2-21.36s11-10.84,12.83-12.24Z" style="fill:#263238"></path><path d="M341.93,197s10.37,8,18.66,10.2,22.64,2.94,26.44,2.25,8-2.42,8-6.05-1.55-3.11-5.53-2.25-12.27,1.38-15.55,2.59a22.48,22.48,0,0,1-10.71,1.56c-3.63-.52-11.58-4.32-13.83-5.53a48.88,48.88,0,0,1-6.05-4.49Z" style="fill:#263238"></path><path d="M382.54,210.21c-6,0-15.66-.78-22.08-2.52-8.29-2.25-18.41-9.95-18.83-10.28a.46.46,0,0,1-.19-.34.5.5,0,0,1,.1-.37l1.38-1.73a.52.52,0,0,1,.35-.18.46.46,0,0,1,.37.12,48.74,48.74,0,0,0,6,4.43c2.62,1.41,10.27,5,13.66,5.47a21.77,21.77,0,0,0,10.47-1.53c2-.74,5.75-1.21,9.37-1.67,2.4-.31,4.67-.59,6.25-.94l.53-.12c2.35-.51,3.77-.82,4.71-.07.62.5.89,1.4.89,2.93,0,4.36-5.23,6-8.36,6.54A29.32,29.32,0,0,1,382.54,210.21Zm-39.89-13.29c2,1.48,10.89,7.86,18.08,9.81,8.31,2.25,22.68,2.88,26.21,2.23,2.82-.51,7.54-1.91,7.54-5.55,0-1.17-.17-1.87-.52-2.15-.56-.45-1.95-.15-3.86.27l-.54.12c-1.62.35-3.91.64-6.33.95-3.56.45-7.25.92-9.16,1.62a22.61,22.61,0,0,1-10.95,1.58c-3.72-.53-11.67-4.33-14-5.58a43.7,43.7,0,0,1-5.75-4.22Z" style="fill:#263238"></path><ellipse cx="339.47" cy="182.37" rx="11.32" ry="16.58" transform="translate(-28.91 69.27) rotate(-11.18)" style="fill:#263238"></ellipse><path d="M341.14,199.29a11,11,0,0,1-7.6-3.51,22.88,22.88,0,0,1-4.66-23.56c1.56-3.64,4.14-6,7.27-6.61s6.42.57,9.25,3.35a21.45,21.45,0,0,1,5.66,11.12c1.83,9.24-1.89,17.78-8.28,19A8.21,8.21,0,0,1,341.14,199.29Zm-3.35-32.84a7.64,7.64,0,0,0-1.44.14c-2.8.55-5.13,2.69-6.55,6a21.89,21.89,0,0,0,4.44,22.46c2.58,2.54,5.55,3.63,8.34,3.08,5.86-1.16,9.22-9.18,7.5-17.88a20.47,20.47,0,0,0-5.38-10.6A10,10,0,0,0,337.79,166.45Z" style="fill:#263238"></path><path d="M342.83,179c1.33,6.74-.89,12.86-5,13.66s-8.45-4-9.78-10.75.89-12.86,5-13.66S341.49,172.23,342.83,179Z" style="fill:#b2b2b2"></path><path d="M337,193.22c-4,0-8.11-4.77-9.39-11.24a17.77,17.77,0,0,1,.47-9.33c1-2.75,2.74-4.5,4.88-4.92,4.34-.85,9,4.14,10.38,11.14a17.77,17.77,0,0,1-.48,9.33c-1,2.75-2.73,4.5-4.88,4.92A5.34,5.34,0,0,1,337,193.22Zm-3-24.59a4.45,4.45,0,0,0-.81.08c-1.79.35-3.26,1.87-4.14,4.28a16.79,16.79,0,0,0-.43,8.79c1.27,6.47,5.4,11.11,9.2,10.36,1.79-.35,3.26-1.88,4.13-4.29a16.77,16.77,0,0,0,.44-8.79C341.15,173.06,337.51,168.63,334,168.63Z" style="fill:#263238"></path><path d="M340.38,133.94s2.59,4.67,3.28,4.49,9.16-5.87,15.21-7.08,14.69-1.9,14.69-1.9l4.66-.18s-2.07-2.93-4.66-3.62-10-2.77-21.43.69C344.33,128.7,339.86,131.35,340.38,133.94Z" style="fill:#263238"></path><path d="M343.61,138.94c-.4,0-1.29-.48-3.67-4.76a.34.34,0,0,1-.05-.14c-.57-2.83,3.5-5.58,12.09-8.18,11.39-3.45,18.81-1.47,21.6-.73l.1,0c2.74.73,4.86,3.7,4.95,3.83a.52.52,0,0,1,0,.51.49.49,0,0,1-.43.27l-4.67.18c-.06,0-8.66.7-14.61,1.89-4.51.9-10.48,4.4-13.35,6.08a11.89,11.89,0,0,1-1.83,1Zm-2.76-5.17a21.67,21.67,0,0,0,2.78,4.13c.25-.12.85-.47,1.47-.84,2.92-1.71,9-5.27,13.67-6.2,6-1.2,14.66-1.9,14.75-1.91l3.69-.14a8.63,8.63,0,0,0-3.78-2.68l-.11,0c-2.72-.73-9.93-2.65-21.05.71C344.68,129.11,340.53,131.65,340.85,133.77Z" style="fill:#263238"></path><path d="M402.15,276.62a.48.48,0,0,1-.26-.07.48.48,0,0,1-.23-.32c-2.25-10.49-11.8-30-11.9-30.21a.5.5,0,1,1,.9-.44c.09.19,9.39,19.2,11.86,29.91l2.25-.66c-.71-2.46-4.1-13.88-7.43-19.21a.5.5,0,0,1,.85-.53c3.8,6.09,7.52,19.39,7.68,20a.5.5,0,0,1-.34.61l-3.24,1A.36.36,0,0,1,402.15,276.62Z" style="fill:#263238"></path><path d="M361.42,319.31s7.32-6.89,12.13-7.52,56.84-3.76,59.14-4.18,8.78-4,21.73-7.52,24.45,3.76,26.54,10.65,1.26,15.26-.83,22.37-10,8.15-23.41,9.4-37.2-2.09-45.14-4-27.59-9-33.86-9.82-14-.42-15.46-3.76A9.25,9.25,0,0,1,361.42,319.31Z" style="fill:#fff"></path><path d="M450,343.28A209.71,209.71,0,0,1,411.47,339c-3.41-.81-8.88-2.55-14.67-4.39-7.66-2.43-15.59-4.95-19.14-5.43-1.51-.2-3.13-.33-4.7-.45-5.11-.41-9.93-.8-11.16-3.6a9.67,9.67,0,0,1-.86-6,.49.49,0,0,1,.14-.23c.3-.29,7.49-7,12.4-7.66C376,311,391.05,310,405.61,309c12.74-.84,25.91-1.71,27-1.9a28.51,28.51,0,0,0,4-1.47,148.46,148.46,0,0,1,17.65-6c13.43-3.68,25,4.06,27.15,11,2.58,8.49.58,17.83-.83,22.65-2.17,7.38-10.07,8.47-23.84,9.76C454.74,343.2,452.45,343.28,450,343.28Zm-88.14-23.71a9.24,9.24,0,0,0,.84,5.19c1,2.25,5.73,2.63,10.32,3,1.58.13,3.21.26,4.75.46,3.64.49,11.61,3,19.32,5.47,5.76,1.83,11.21,3.56,14.59,4.36,8.39,2,31.87,5.2,45,4,13.35-1.25,21-2.28,23-9.05,2.36-8,2.66-16,.84-22.07-2-6.56-13.08-13.85-25.94-10.32a147.42,147.42,0,0,0-17.54,6,28.06,28.06,0,0,1-4.23,1.52c-1.14.21-13.17,1-27.1,1.92-14.55,1-29.59,1.94-32.07,2.27C369.34,312.84,362.82,318.71,361.88,319.57Z" style="fill:#263238"></path><path d="M323.07,362.83s11.81,15,16,15,45.56-7.11,60.61-19.23,37.2-47,39.29-50.57,7.73-4.6,7.73-6.9-6.27-7.1-9.61-7.52-11.92.42-13.8,1.67-11.28,9.2-11.91,9.82-27.58,12.75-29.67,13.59-15.38,3.36-15.38,3.36S331.1,327.76,323.07,362.83Z" style="fill:#fff"></path><path d="M339.06,378.33c-4.3,0-15.16-13.64-16.39-15.19a.49.49,0,0,1-.09-.42c8-35,43.31-41.11,43.66-41.16.12,0,13.25-2.53,15.27-3.34,2.48-1,28.5-12.73,29.54-13.5.53-.54,10-8.57,12-9.86s10.84-2.16,14.13-1.75c3.46.43,10.05,5.3,10.05,8,0,1.43-1.54,2.35-3.32,3.4s-3.5,2.08-4.48,3.75C436.61,313,414.8,347.06,400,359,384.53,371.44,342.56,378.33,339.06,378.33Zm-15.45-15.62c3.36,4.24,12.27,14.62,15.45,14.62,3.47,0,45-6.81,60.3-19.12,14.7-11.84,36.4-45.73,39.17-50.44,1.11-1.89,3.09-3.06,4.83-4.1,1.52-.9,2.83-1.68,2.83-2.54,0-1.82-5.85-6.61-9.18-7s-11.74.46-13.45,1.6c-1.91,1.27-11.28,9.2-11.83,9.76-.82.81-29.58,13.58-29.85,13.69-2.11.85-14.92,3.29-15.46,3.39C366.05,322.6,331.58,328.59,323.61,362.71Z" style="fill:#263238"></path><path d="M317.92,251.35s-20,5-26.68,21.15-6.86,34.3,3.43,47.26,27.25,41.73,28.4,43.07a26.64,26.64,0,0,1,2.09,2.86s13.15-26.11,22.87-33.16a94.85,94.85,0,0,1,18.29-10.48L356,305.85s-.19-18.29-4.38-28.77a27.27,27.27,0,0,0-12.77-14.29" style="fill:#92E3A9"></path><path d="M325.16,366.19a.49.49,0,0,1-.42-.24,28.3,28.3,0,0,0-2.05-2.8c-.33-.37-1.54-2.33-4-6.37-5.91-9.54-16.9-27.3-24.37-36.71-9.55-12-10.86-29.88-3.5-47.76,6.69-16.24,26.82-21.39,27-21.44a.5.5,0,0,1,.61.36.51.51,0,0,1-.37.61c-.2,0-19.84,5.09-26.33,20.86-7.23,17.53-6,35,3.35,46.75,7.51,9.46,18.52,27.24,24.44,36.8,2,3.31,3.66,5.92,3.95,6.25.66.78,1.26,1.62,1.66,2.19,2.29-4.44,13.74-26.12,22.62-32.57a98.74,98.74,0,0,1,17.85-10.3l-10-15.7a.5.5,0,0,1-.08-.26c0-.19-.24-18.32-4.35-28.6a27.09,27.09,0,0,0-12.5-14,.49.49,0,0,1-.25-.66.5.5,0,0,1,.66-.25,27.56,27.56,0,0,1,13,14.56c4,10,4.39,27.07,4.42,28.81l10.21,16.08a.52.52,0,0,1,.06.42.5.5,0,0,1-.29.31,95.89,95.89,0,0,0-18.19,10.42c-9.51,6.9-22.58,32.72-22.71,33a.51.51,0,0,1-.43.28Z" style="fill:#263238"></path><path d="M349.73,302.48a.52.52,0,0,1-.29-.09c-3.77-2.62-9.61-5.72-16.09-5.58a.5.5,0,1,1,0-1c6.73-.13,12.79,3.06,16.68,5.76a.5.5,0,0,1-.28.91Z" style="fill:#263238"></path><path d="M354.07,306a.47.47,0,0,1-.35-.15s-.59-.59-1.62-1.44a.49.49,0,0,1-.06-.7.5.5,0,0,1,.7-.07c1.07.89,1.66,1.48,1.68,1.5a.5.5,0,0,1,0,.71A.47.47,0,0,1,354.07,306Z" style="fill:#263238"></path><path d="M360,294.35h0a.51.51,0,0,1-.5-.51c.19-18.44-12.3-31.15-12.43-31.27a.5.5,0,0,1,.71-.71c.13.13,12.91,13.14,12.72,32A.5.5,0,0,1,360,294.35Z" style="fill:#263238"></path><path d="M361.37,302.35a.41.41,0,0,1-.16,0,.49.49,0,0,1-.32-.63,28.1,28.1,0,0,0,1-3.81.5.5,0,0,1,1,.18,28.35,28.35,0,0,1-1,3.95A.49.49,0,0,1,361.37,302.35Z" style="fill:#263238"></path><path d="M363,293.67h0a.52.52,0,0,1-.46-.54,80.73,80.73,0,0,0-.09-12.95.51.51,0,0,1,.45-.55.5.5,0,0,1,.55.45,83,83,0,0,1,.09,13.13A.5.5,0,0,1,363,293.67Z" style="fill:#263238"></path><path d="M343.66,376.87a.49.49,0,0,1-.49-.42.5.5,0,0,1,.4-.58c.09,0,8.35-1.47,12.62-3.51s11-6,11-6a.49.49,0,0,1,.68.18.48.48,0,0,1-.17.68c-.07,0-6.76,4-11.12,6.08s-12.53,3.54-12.87,3.6Z" style="fill:#263238"></path></g></svg>